<?xml version="1.0" encoding="utf-8"?>
<svg width="268" height="116" viewBox="0 0 268 116" fill="none" xmlns="http://www.w3.org/2000/svg">
  <g filter="url(#filter0_d_1668_106024)" transform="matrix(1, 0, 0, 1, -11.170376, -3.077548)">
    <g clip-path="url(#clip0_1668_106024)">
      <rect x="16" y="12" width="236" height="84" rx="8" fill="#E0B43A"/>
      <path d="M35.276 35.08L32.056 29.2H33.708L35.724 33.008C35.8453 33.2507 35.948 33.4793 36.032 33.694C36.116 33.4793 36.2187 33.2507 36.34 33.008L38.356 29.2H40.008L36.788 35.08V39H35.276V35.08ZM42.9139 39.196C42.2605 39.196 41.6492 39.056 41.0799 38.776C40.5105 38.4867 40.0532 38.0667 39.7079 37.516C39.3625 36.956 39.1899 36.2933 39.1899 35.528C39.1899 34.7627 39.3625 34.1047 39.7079 33.554C40.0532 32.994 40.5105 32.574 41.0799 32.294C41.6492 32.0047 42.2605 31.86 42.9139 31.86C43.5579 31.86 44.1645 32.0047 44.7339 32.294C45.3032 32.574 45.7605 32.994 46.1059 33.554C46.4512 34.1047 46.6239 34.7627 46.6239 35.528C46.6239 36.2933 46.4512 36.956 46.1059 37.516C45.7605 38.0667 45.3032 38.4867 44.7339 38.776C44.1645 39.056 43.5579 39.196 42.9139 39.196ZM42.9139 37.866C43.3152 37.866 43.6885 37.7727 44.0339 37.586C44.3792 37.39 44.6499 37.1147 44.8459 36.76C45.0512 36.4053 45.1539 35.9947 45.1539 35.528C45.1539 35.0613 45.0512 34.6507 44.8459 34.296C44.6499 33.9413 44.3792 33.6707 44.0339 33.484C43.6885 33.288 43.3152 33.19 42.9139 33.19C42.5032 33.19 42.1252 33.288 41.7799 33.484C41.4439 33.6707 41.1732 33.9413 40.9679 34.296C40.7625 34.6507 40.6599 35.0613 40.6599 35.528C40.6599 35.9947 40.7625 36.4053 40.9679 36.76C41.1732 37.1147 41.4439 37.39 41.7799 37.586C42.1252 37.7727 42.5032 37.866 42.9139 37.866ZM50.5798 39.196C49.8331 39.196 49.2218 38.9673 48.7458 38.51C48.2698 38.0433 48.0318 37.3667 48.0318 36.48V32.056H49.4878V36.2C49.4878 36.7413 49.6184 37.1567 49.8798 37.446C50.1504 37.726 50.5331 37.866 51.0278 37.866C51.5504 37.866 51.9844 37.6653 52.3298 37.264C52.6751 36.8533 52.8478 36.3307 52.8478 35.696V32.056H54.2897V39H52.8478V37.852C52.6238 38.272 52.3111 38.6033 51.9098 38.846C51.5084 39.0793 51.0651 39.196 50.5798 39.196ZM63.0037 39.196C62.369 39.196 61.795 39.0467 61.2817 38.748C60.7683 38.44 60.3623 38.0107 60.0637 37.46C59.765 36.9 59.6157 36.256 59.6157 35.528C59.6157 34.8093 59.7697 34.1747 60.0777 33.624C60.395 33.064 60.8103 32.63 61.3237 32.322C61.8463 32.014 62.4017 31.86 62.9897 31.86C63.5123 31.86 63.9743 31.9673 64.3757 32.182C64.777 32.3967 65.085 32.6907 65.2997 33.064V29.2H66.7557V39H65.2997V37.894C65.0943 38.2767 64.791 38.5893 64.3897 38.832C63.9883 39.0747 63.5263 39.196 63.0037 39.196ZM63.2557 37.866C63.6663 37.866 64.035 37.768 64.3617 37.572C64.6883 37.3667 64.945 37.0867 65.1317 36.732C65.3183 36.3773 65.4117 35.976 65.4117 35.528C65.4117 35.08 65.3183 34.6787 65.1317 34.324C64.945 33.9693 64.6883 33.694 64.3617 33.498C64.035 33.2927 63.6663 33.19 63.2557 33.19C62.621 33.19 62.103 33.4093 61.7017 33.848C61.3003 34.2867 61.0997 34.8467 61.0997 35.528C61.0997 36.2093 61.3003 36.7693 61.7017 37.208C62.103 37.6467 62.621 37.866 63.2557 37.866ZM68.6353 32.056H70.0913V39H68.6353V32.056ZM68.5513 29.34H70.1893V30.95H68.5513V29.34ZM74.4551 39.196C73.6804 39.196 73.0364 39.0047 72.5231 38.622C72.0191 38.2393 71.6411 37.7447 71.3891 37.138L72.5651 36.41C72.7238 36.8953 72.9664 37.278 73.2931 37.558C73.6198 37.838 74.0164 37.978 74.4831 37.978C74.8564 37.978 75.1644 37.8893 75.4071 37.712C75.6591 37.5253 75.7851 37.2827 75.7851 36.984C75.7851 36.704 75.6544 36.4847 75.3931 36.326C75.1411 36.158 74.7304 36.0227 74.1611 35.92C73.4424 35.78 72.8638 35.5373 72.4251 35.192C71.9958 34.8467 71.7811 34.38 71.7811 33.792C71.7811 33.1947 72.0191 32.7233 72.4951 32.378C72.9804 32.0327 73.5731 31.86 74.2731 31.86C74.9918 31.86 75.5704 32.0047 76.0091 32.294C76.4478 32.574 76.7978 33.0033 77.0591 33.582L75.9951 34.212C75.8364 33.8107 75.6078 33.5027 75.3091 33.288C75.0198 33.064 74.6838 32.952 74.3011 32.952C73.9464 32.952 73.6524 33.022 73.4191 33.162C73.1858 33.2927 73.0691 33.484 73.0691 33.736C73.0691 34.0067 73.2138 34.2307 73.5031 34.408C73.8018 34.5853 74.2404 34.73 74.8191 34.842C75.6031 35.0007 76.1818 35.248 76.5551 35.584C76.9378 35.9107 77.1291 36.3633 77.1291 36.942C77.1291 37.3527 77.0218 37.7307 76.8071 38.076C76.6018 38.4213 76.2938 38.6967 75.8831 38.902C75.4818 39.098 75.0058 39.196 74.4551 39.196ZM78.3833 32.056H79.8393V33.064C80.0633 32.6813 80.3573 32.3873 80.7213 32.182C81.0853 31.9673 81.4726 31.86 81.8833 31.86C82.3593 31.86 82.7606 31.972 83.0873 32.196C83.4233 32.4107 83.6613 32.7187 83.8013 33.12C84.0346 32.728 84.3473 32.42 84.7393 32.196C85.1406 31.972 85.5653 31.86 86.0133 31.86C86.6946 31.86 87.2266 32.056 87.6093 32.448C88.0013 32.84 88.1973 33.372 88.1973 34.044V39H86.7553V34.478C86.7553 33.5727 86.3493 33.12 85.5373 33.12C85.0986 33.12 84.7346 33.302 84.4453 33.666C84.156 34.0207 84.0113 34.534 84.0113 35.206V39H82.5693V34.52C82.5693 34.072 82.4666 33.7267 82.2613 33.484C82.056 33.2413 81.7526 33.12 81.3513 33.12C80.9313 33.12 80.572 33.302 80.2733 33.666C79.984 34.03 79.8393 34.5293 79.8393 35.164V39H78.3833V32.056ZM90.0864 32.056H91.5424V39H90.0864V32.056ZM90.0024 29.34H91.6404V30.95H90.0024V29.34ZM95.9063 39.196C95.1316 39.196 94.4876 39.0047 93.9743 38.622C93.4703 38.2393 93.0923 37.7447 92.8403 37.138L94.0163 36.41C94.1749 36.8953 94.4176 37.278 94.7443 37.558C95.0709 37.838 95.4676 37.978 95.9343 37.978C96.3076 37.978 96.6156 37.8893 96.8583 37.712C97.1103 37.5253 97.2363 37.2827 97.2363 36.984C97.2363 36.704 97.1056 36.4847 96.8443 36.326C96.5923 36.158 96.1816 36.0227 95.6123 35.92C94.8936 35.78 94.3149 35.5373 93.8763 35.192C93.4469 34.8467 93.2323 34.38 93.2323 33.792C93.2323 33.1947 93.4703 32.7233 93.9463 32.378C94.4316 32.0327 95.0243 31.86 95.7243 31.86C96.4429 31.86 97.0216 32.0047 97.4603 32.294C97.8989 32.574 98.2489 33.0033 98.5103 33.582L97.4463 34.212C97.2876 33.8107 97.0589 33.5027 96.7603 33.288C96.4709 33.064 96.1349 32.952 95.7523 32.952C95.3976 32.952 95.1036 33.022 94.8703 33.162C94.6369 33.2927 94.5203 33.484 94.5203 33.736C94.5203 34.0067 94.6649 34.2307 94.9543 34.408C95.2529 34.5853 95.6916 34.73 96.2703 34.842C97.0543 35.0007 97.6329 35.248 98.0063 35.584C98.3889 35.9107 98.5803 36.3633 98.5803 36.942C98.5803 37.3527 98.4729 37.7307 98.2583 38.076C98.0529 38.4213 97.7449 38.6967 97.3343 38.902C96.9329 39.098 96.4569 39.196 95.9063 39.196ZM102.564 39.196C101.79 39.196 101.146 39.0047 100.632 38.622C100.128 38.2393 99.7505 37.7447 99.4985 37.138L100.674 36.41C100.833 36.8953 101.076 37.278 101.402 37.558C101.729 37.838 102.126 37.978 102.592 37.978C102.966 37.978 103.274 37.8893 103.516 37.712C103.768 37.5253 103.894 37.2827 103.894 36.984C103.894 36.704 103.764 36.4847 103.502 36.326C103.25 36.158 102.84 36.0227 102.27 35.92C101.552 35.78 100.973 35.5373 100.534 35.192C100.105 34.8467 99.8905 34.38 99.8905 33.792C99.8905 33.1947 100.128 32.7233 100.604 32.378C101.09 32.0327 101.682 31.86 102.382 31.86C103.101 31.86 103.68 32.0047 104.118 32.294C104.557 32.574 104.907 33.0033 105.168 33.582L104.104 34.212C103.946 33.8107 103.717 33.5027 103.418 33.288C103.129 33.064 102.793 32.952 102.41 32.952C102.056 32.952 101.762 33.022 101.528 33.162C101.295 33.2927 101.178 33.484 101.178 33.736C101.178 34.0067 101.323 34.2307 101.612 34.408C101.911 34.5853 102.35 34.73 102.928 34.842C103.712 35.0007 104.291 35.248 104.664 35.584C105.047 35.9107 105.238 36.3633 105.238 36.942C105.238 37.3527 105.131 37.7307 104.916 38.076C104.711 38.4213 104.403 38.6967 103.992 38.902C103.591 39.098 103.115 39.196 102.564 39.196ZM109.682 39.196C109.048 39.196 108.46 39.042 107.918 38.734C107.386 38.426 106.962 37.992 106.644 37.432C106.327 36.872 106.168 36.2373 106.168 35.528C106.168 34.8187 106.327 34.1887 106.644 33.638C106.962 33.078 107.391 32.644 107.932 32.336C108.483 32.0187 109.09 31.86 109.752 31.86C110.415 31.86 110.998 32.0093 111.502 32.308C112.016 32.5973 112.412 33.008 112.692 33.54C112.972 34.0627 113.112 34.66 113.112 35.332V35.836H107.568C107.615 36.4613 107.834 36.97 108.226 37.362C108.618 37.754 109.113 37.95 109.71 37.95C110.224 37.95 110.648 37.8333 110.984 37.6C111.32 37.3573 111.605 37.0073 111.838 36.55L112.902 37.166C112.566 37.8473 112.137 38.356 111.614 38.692C111.092 39.028 110.448 39.196 109.682 39.196ZM111.726 34.702C111.67 34.17 111.456 33.7547 111.082 33.456C110.709 33.148 110.252 32.994 109.71 32.994C109.188 32.994 108.735 33.1573 108.352 33.484C107.97 33.8013 107.718 34.2073 107.596 34.702H111.726ZM117.554 39.196C116.92 39.196 116.346 39.0467 115.832 38.748C115.319 38.44 114.913 38.0107 114.614 37.46C114.316 36.9 114.166 36.256 114.166 35.528C114.166 34.8093 114.32 34.1747 114.628 33.624C114.946 33.064 115.361 32.63 115.874 32.322C116.397 32.014 116.952 31.86 117.54 31.86C118.063 31.86 118.525 31.9673 118.926 32.182C119.328 32.3967 119.636 32.6907 119.85 33.064V29.2H121.306V39H119.85V37.894C119.645 38.2767 119.342 38.5893 118.94 38.832C118.539 39.0747 118.077 39.196 117.554 39.196ZM117.806 37.866C118.217 37.866 118.586 37.768 118.912 37.572C119.239 37.3667 119.496 37.0867 119.682 36.732C119.869 36.3773 119.962 35.976 119.962 35.528C119.962 35.08 119.869 34.6787 119.682 34.324C119.496 33.9693 119.239 33.694 118.912 33.498C118.586 33.2927 118.217 33.19 117.806 33.19C117.172 33.19 116.654 33.4093 116.252 33.848C115.851 34.2867 115.65 34.8467 115.65 35.528C115.65 36.2093 115.851 36.7693 116.252 37.208C116.654 37.6467 117.172 37.866 117.806 37.866ZM129.085 39.196C128.395 39.196 127.835 39 127.405 38.608C126.976 38.2067 126.761 37.684 126.761 37.04C126.761 36.3867 126.985 35.8733 127.433 35.5C127.891 35.1267 128.474 34.884 129.183 34.772L131.395 34.422V34.142C131.395 33.7407 131.269 33.4373 131.017 33.232C130.775 33.0267 130.42 32.924 129.953 32.924C129.496 32.924 129.137 33.0173 128.875 33.204C128.623 33.3813 128.497 33.6053 128.497 33.876C128.497 33.9413 128.507 34.002 128.525 34.058L127.251 34.492C127.177 34.3147 127.139 34.1233 127.139 33.918C127.139 33.554 127.251 33.218 127.475 32.91C127.709 32.5927 128.04 32.3407 128.469 32.154C128.899 31.958 129.393 31.86 129.953 31.86C130.887 31.86 131.601 32.0653 132.095 32.476C132.599 32.8867 132.851 33.484 132.851 34.268V37.278C132.851 37.67 132.884 37.992 132.949 38.244C133.015 38.4867 133.131 38.7387 133.299 39H131.829C131.577 38.6733 131.451 38.2627 131.451 37.768C131.237 38.216 130.915 38.566 130.485 38.818C130.065 39.07 129.599 39.196 129.085 39.196ZM129.393 37.992C129.991 37.992 130.471 37.7773 130.835 37.348C131.209 36.9093 131.395 36.3493 131.395 35.668V35.472L129.505 35.794C129.076 35.8687 128.745 36.004 128.511 36.2C128.287 36.396 128.175 36.6527 128.175 36.97C128.175 37.2873 128.283 37.5393 128.497 37.726C128.721 37.9033 129.02 37.992 129.393 37.992ZM141.252 39.196C140.646 39.196 140.156 39.0327 139.782 38.706C139.409 38.37 139.222 37.8333 139.222 37.096V33.218H138.102V32.056H139.222V30.18H140.664V32.056H142.246V33.218H140.664V36.886C140.664 37.5767 140.972 37.922 141.588 37.922C141.775 37.922 141.962 37.894 142.148 37.838L142.288 39.028C141.971 39.14 141.626 39.196 141.252 39.196ZM145.601 39.196C144.91 39.196 144.35 39 143.921 38.608C143.491 38.2067 143.277 37.684 143.277 37.04C143.277 36.3867 143.501 35.8733 143.949 35.5C144.406 35.1267 144.989 34.884 145.699 34.772L147.911 34.422V34.142C147.911 33.7407 147.785 33.4373 147.533 33.232C147.29 33.0267 146.935 32.924 146.469 32.924C146.011 32.924 145.652 33.0173 145.391 33.204C145.139 33.3813 145.013 33.6053 145.013 33.876C145.013 33.9413 145.022 34.002 145.041 34.058L143.767 34.492C143.692 34.3147 143.655 34.1233 143.655 33.918C143.655 33.554 143.767 33.218 143.991 32.91C144.224 32.5927 144.555 32.3407 144.985 32.154C145.414 31.958 145.909 31.86 146.469 31.86C147.402 31.86 148.116 32.0653 148.611 32.476C149.115 32.8867 149.367 33.484 149.367 34.268V37.278C149.367 37.67 149.399 37.992 149.465 38.244C149.53 38.4867 149.647 38.7387 149.815 39H148.345C148.093 38.6733 147.967 38.2627 147.967 37.768C147.752 38.216 147.43 38.566 147.001 38.818C146.581 39.07 146.114 39.196 145.601 39.196ZM145.909 37.992C146.506 37.992 146.987 37.7773 147.351 37.348C147.724 36.9093 147.911 36.3493 147.911 35.668V35.472L146.021 35.794C145.591 35.8687 145.26 36.004 145.027 36.2C144.803 36.396 144.691 36.6527 144.691 36.97C144.691 37.2873 144.798 37.5393 145.013 37.726C145.237 37.9033 145.535 37.992 145.909 37.992ZM151.118 29.2H152.574V39H151.118V29.2ZM157.548 39.196C156.913 39.196 156.325 39.042 155.784 38.734C155.252 38.426 154.827 37.992 154.51 37.432C154.192 36.872 154.034 36.2373 154.034 35.528C154.034 34.8187 154.192 34.1887 154.51 33.638C154.827 33.078 155.256 32.644 155.798 32.336C156.348 32.0187 156.955 31.86 157.618 31.86C158.28 31.86 158.864 32.0093 159.368 32.308C159.881 32.5973 160.278 33.008 160.558 33.54C160.838 34.0627 160.978 34.66 160.978 35.332V35.836H155.434C155.48 36.4613 155.7 36.97 156.092 37.362C156.484 37.754 156.978 37.95 157.576 37.95C158.089 37.95 158.514 37.8333 158.85 37.6C159.186 37.3573 159.47 37.0073 159.704 36.55L160.768 37.166C160.432 37.8473 160.002 38.356 159.48 38.692C158.957 39.028 158.313 39.196 157.548 39.196ZM159.592 34.702C159.536 34.17 159.321 33.7547 158.948 33.456C158.574 33.148 158.117 32.994 157.576 32.994C157.053 32.994 156.6 33.1573 156.218 33.484C155.835 33.8013 155.583 34.2073 155.462 34.702H159.592ZM162.465 32.056H163.921V33.232C164.173 32.8027 164.509 32.4667 164.929 32.224C165.349 31.9813 165.807 31.86 166.301 31.86C167.02 31.86 167.603 32.0747 168.051 32.504C168.509 32.924 168.737 33.512 168.737 34.268V39H167.281V34.786C167.281 34.282 167.146 33.89 166.875 33.61C166.614 33.33 166.236 33.19 165.741 33.19C165.405 33.19 165.097 33.2833 164.817 33.47C164.547 33.6567 164.327 33.9133 164.159 34.24C164.001 34.5573 163.921 34.9213 163.921 35.332V39H162.465V32.056ZM172.834 39.196C172.228 39.196 171.738 39.0327 171.364 38.706C170.991 38.37 170.804 37.8333 170.804 37.096V33.218H169.684V32.056H170.804V30.18H172.246V32.056H173.828V33.218H172.246V36.886C172.246 37.5767 172.554 37.922 173.17 37.922C173.357 37.922 173.544 37.894 173.73 37.838L173.87 39.028C173.553 39.14 173.208 39.196 172.834 39.196ZM175.081 30.166V29.2H176.495V30.166L176.313 32.42H175.263L175.081 30.166ZM180.221 39.196C179.446 39.196 178.802 39.0047 178.289 38.622C177.785 38.2393 177.407 37.7447 177.155 37.138L178.331 36.41C178.489 36.8953 178.732 37.278 179.059 37.558C179.385 37.838 179.782 37.978 180.249 37.978C180.622 37.978 180.93 37.8893 181.173 37.712C181.425 37.5253 181.551 37.2827 181.551 36.984C181.551 36.704 181.42 36.4847 181.159 36.326C180.907 36.158 180.496 36.0227 179.927 35.92C179.208 35.78 178.629 35.5373 178.191 35.192C177.761 34.8467 177.547 34.38 177.547 33.792C177.547 33.1947 177.785 32.7233 178.261 32.378C178.746 32.0327 179.339 31.86 180.039 31.86C180.757 31.86 181.336 32.0047 181.775 32.294C182.213 32.574 182.563 33.0033 182.825 33.582L181.761 34.212C181.602 33.8107 181.373 33.5027 181.075 33.288C180.785 33.064 180.449 32.952 180.067 32.952C179.712 32.952 179.418 33.022 179.185 33.162C178.951 33.2927 178.835 33.484 178.835 33.736C178.835 34.0067 178.979 34.2307 179.269 34.408C179.567 34.5853 180.006 34.73 180.585 34.842C181.369 35.0007 181.947 35.248 182.321 35.584C182.703 35.9107 182.895 36.3633 182.895 36.942C182.895 37.3527 182.787 37.7307 182.573 38.076C182.367 38.4213 182.059 38.6967 181.649 38.902C181.247 39.098 180.771 39.196 180.221 39.196ZM34.968 59.196C34.2773 59.196 33.7173 59 33.288 58.608C32.8587 58.2067 32.644 57.684 32.644 57.04C32.644 56.3867 32.868 55.8733 33.316 55.5C33.7733 55.1267 34.3567 54.884 35.066 54.772L37.278 54.422V54.142C37.278 53.7407 37.152 53.4373 36.9 53.232C36.6573 53.0267 36.3027 52.924 35.836 52.924C35.3787 52.924 35.0193 53.0173 34.758 53.204C34.506 53.3813 34.38 53.6053 34.38 53.876C34.38 53.9413 34.3893 54.002 34.408 54.058L33.134 54.492C33.0593 54.3147 33.022 54.1233 33.022 53.918C33.022 53.554 33.134 53.218 33.358 52.91C33.5913 52.5927 33.9227 52.3407 34.352 52.154C34.7813 51.958 35.276 51.86 35.836 51.86C36.7693 51.86 37.4833 52.0653 37.978 52.476C38.482 52.8867 38.734 53.484 38.734 54.268V57.278C38.734 57.67 38.7667 57.992 38.832 58.244C38.8973 58.4867 39.014 58.7387 39.182 59H37.712C37.46 58.6733 37.334 58.2627 37.334 57.768C37.1193 58.216 36.7973 58.566 36.368 58.818C35.948 59.07 35.4813 59.196 34.968 59.196ZM35.276 57.992C35.8733 57.992 36.354 57.7773 36.718 57.348C37.0913 56.9093 37.278 56.3493 37.278 55.668V55.472L35.388 55.794C34.9587 55.8687 34.6273 56.004 34.394 56.2C34.17 56.396 34.058 56.6527 34.058 56.97C34.058 57.2873 34.1653 57.5393 34.38 57.726C34.604 57.9033 34.9027 57.992 35.276 57.992ZM40.5669 52.056H42.0229V53.19C42.2469 52.8073 42.5782 52.49 43.0169 52.238C43.4649 51.986 43.9549 51.86 44.4869 51.86C45.0842 51.86 45.6256 52.014 46.1109 52.322C46.6056 52.6207 46.9929 53.05 47.2729 53.61C47.5622 54.1607 47.7069 54.8 47.7069 55.528C47.7069 56.2373 47.5576 56.872 47.2589 57.432C46.9696 57.9827 46.5729 58.4167 46.0689 58.734C45.5649 59.042 45.0002 59.196 44.3749 59.196C43.8709 59.196 43.4136 59.0933 43.0029 58.888C42.6016 58.6733 42.2749 58.384 42.0229 58.02V61.856H40.5669V52.056ZM44.0669 57.866C44.4776 57.866 44.8462 57.768 45.1729 57.572C45.5089 57.3667 45.7656 57.0867 45.9429 56.732C46.1296 56.368 46.2229 55.9667 46.2229 55.528C46.2229 55.0893 46.1296 54.6927 45.9429 54.338C45.7656 53.974 45.5089 53.694 45.1729 53.498C44.8462 53.2927 44.4776 53.19 44.0669 53.19C43.6562 53.19 43.2876 53.2927 42.9609 53.498C42.6342 53.7033 42.3776 53.9833 42.1909 54.338C42.0042 54.6927 41.9109 55.0893 41.9109 55.528C41.9109 55.9667 42.0042 56.3633 42.1909 56.718C42.3776 57.0727 42.6342 57.3527 42.9609 57.558C43.2876 57.7633 43.6562 57.866 44.0669 57.866ZM49.1665 52.056H50.6225V53.19C50.8465 52.8073 51.1778 52.49 51.6165 52.238C52.0645 51.986 52.5545 51.86 53.0865 51.86C53.6838 51.86 54.2252 52.014 54.7105 52.322C55.2052 52.6207 55.5925 53.05 55.8725 53.61C56.1618 54.1607 56.3065 54.8 56.3065 55.528C56.3065 56.2373 56.1572 56.872 55.8585 57.432C55.5692 57.9827 55.1725 58.4167 54.6685 58.734C54.1645 59.042 53.5998 59.196 52.9745 59.196C52.4705 59.196 52.0132 59.0933 51.6025 58.888C51.2012 58.6733 50.8745 58.384 50.6225 58.02V61.856H49.1665V52.056ZM52.6665 57.866C53.0772 57.866 53.4458 57.768 53.7725 57.572C54.1085 57.3667 54.3652 57.0867 54.5425 56.732C54.7292 56.368 54.8225 55.9667 54.8225 55.528C54.8225 55.0893 54.7292 54.6927 54.5425 54.338C54.3652 53.974 54.1085 53.694 53.7725 53.498C53.4458 53.2927 53.0772 53.19 52.6665 53.19C52.2558 53.19 51.8872 53.2927 51.5605 53.498C51.2338 53.7033 50.9772 53.9833 50.7905 54.338C50.6038 54.6927 50.5105 55.0893 50.5105 55.528C50.5105 55.9667 50.6038 56.3633 50.7905 56.718C50.9772 57.0727 51.2338 57.3527 51.5605 57.558C51.8872 57.7633 52.2558 57.866 52.6665 57.866ZM57.7661 49.2H59.2221V59H57.7661V49.2ZM61.1021 52.056H62.5581V59H61.1021V52.056ZM61.0181 49.34H62.6561V50.95H61.0181V49.34ZM67.6027 59.196C66.9213 59.196 66.3053 59.042 65.7547 58.734C65.204 58.426 64.77 57.9967 64.4527 57.446C64.1447 56.886 63.9907 56.2467 63.9907 55.528C63.9907 54.8187 64.154 54.1887 64.4807 53.638C64.8073 53.078 65.246 52.644 65.7967 52.336C66.3567 52.0187 66.9587 51.86 67.6027 51.86C68.3493 51.86 68.9793 52.0093 69.4927 52.308C70.0153 52.6067 70.4027 53.0407 70.6547 53.61L69.4647 54.338C69.0633 53.582 68.4427 53.204 67.6027 53.204C67.2013 53.204 66.8373 53.302 66.5107 53.498C66.1933 53.6847 65.9413 53.9553 65.7547 54.31C65.568 54.6553 65.4747 55.0613 65.4747 55.528C65.4747 56.228 65.6707 56.7927 66.0627 57.222C66.464 57.642 66.9773 57.852 67.6027 57.852C68.0693 57.852 68.452 57.754 68.7507 57.558C69.0493 57.362 69.3107 57.068 69.5347 56.676L70.6967 57.39C69.9873 58.594 68.956 59.196 67.6027 59.196ZM74.0285 59.196C73.3379 59.196 72.7779 59 72.3485 58.608C71.9192 58.2067 71.7045 57.684 71.7045 57.04C71.7045 56.3867 71.9285 55.8733 72.3765 55.5C72.8339 55.1267 73.4172 54.884 74.1265 54.772L76.3385 54.422V54.142C76.3385 53.7407 76.2125 53.4373 75.9605 53.232C75.7179 53.0267 75.3632 52.924 74.8965 52.924C74.4392 52.924 74.0799 53.0173 73.8185 53.204C73.5665 53.3813 73.4405 53.6053 73.4405 53.876C73.4405 53.9413 73.4499 54.002 73.4685 54.058L72.1945 54.492C72.1199 54.3147 72.0825 54.1233 72.0825 53.918C72.0825 53.554 72.1945 53.218 72.4185 52.91C72.6519 52.5927 72.9832 52.3407 73.4125 52.154C73.8419 51.958 74.3365 51.86 74.8965 51.86C75.8299 51.86 76.5439 52.0653 77.0385 52.476C77.5425 52.8867 77.7945 53.484 77.7945 54.268V57.278C77.7945 57.67 77.8272 57.992 77.8925 58.244C77.9579 58.4867 78.0745 58.7387 78.2425 59H76.7725C76.5205 58.6733 76.3945 58.2627 76.3945 57.768C76.1799 58.216 75.8579 58.566 75.4285 58.818C75.0085 59.07 74.5419 59.196 74.0285 59.196ZM74.3365 57.992C74.9339 57.992 75.4145 57.7773 75.7785 57.348C76.1519 56.9093 76.3385 56.3493 76.3385 55.668V55.472L74.4485 55.794C74.0192 55.8687 73.6879 56.004 73.4545 56.2C73.2305 56.396 73.1185 56.6527 73.1185 56.97C73.1185 57.2873 73.2259 57.5393 73.4405 57.726C73.6645 57.9033 73.9632 57.992 74.3365 57.992ZM82.012 59.196C81.4054 59.196 80.9154 59.0327 80.542 58.706C80.1687 58.37 79.982 57.8333 79.982 57.096V53.218H78.862V52.056H79.982V50.18H81.424V52.056H83.006V53.218H81.424V56.886C81.424 57.5767 81.732 57.922 82.348 57.922C82.5347 57.922 82.7214 57.894 82.908 57.838L83.048 59.028C82.7307 59.14 82.3854 59.196 82.012 59.196ZM84.4263 52.056H85.8823V59H84.4263V52.056ZM84.3423 49.34H85.9803V50.95H84.3423V49.34ZM91.0389 59.196C90.3855 59.196 89.7742 59.056 89.2049 58.776C88.6355 58.4867 88.1782 58.0667 87.8329 57.516C87.4875 56.956 87.3149 56.2933 87.3149 55.528C87.3149 54.7627 87.4875 54.1047 87.8329 53.554C88.1782 52.994 88.6355 52.574 89.2049 52.294C89.7742 52.0047 90.3855 51.86 91.0389 51.86C91.6829 51.86 92.2895 52.0047 92.8589 52.294C93.4282 52.574 93.8855 52.994 94.2309 53.554C94.5762 54.1047 94.7489 54.7627 94.7489 55.528C94.7489 56.2933 94.5762 56.956 94.2309 57.516C93.8855 58.0667 93.4282 58.4867 92.8589 58.776C92.2895 59.056 91.6829 59.196 91.0389 59.196ZM91.0389 57.866C91.4402 57.866 91.8135 57.7727 92.1589 57.586C92.5042 57.39 92.7749 57.1147 92.9709 56.76C93.1762 56.4053 93.2789 55.9947 93.2789 55.528C93.2789 55.0613 93.1762 54.6507 92.9709 54.296C92.7749 53.9413 92.5042 53.6707 92.1589 53.484C91.8135 53.288 91.4402 53.19 91.0389 53.19C90.6282 53.19 90.2502 53.288 89.9049 53.484C89.5689 53.6707 89.2982 53.9413 89.0929 54.296C88.8875 54.6507 88.7849 55.0613 88.7849 55.528C88.7849 55.9947 88.8875 56.4053 89.0929 56.76C89.2982 57.1147 89.5689 57.39 89.9049 57.586C90.2502 57.7727 90.6282 57.866 91.0389 57.866ZM96.2114 52.056H97.6674V53.232C97.9194 52.8027 98.2554 52.4667 98.6754 52.224C99.0954 51.9813 99.5528 51.86 100.047 51.86C100.766 51.86 101.349 52.0747 101.797 52.504C102.255 52.924 102.483 53.512 102.483 54.268V59H101.027V54.786C101.027 54.282 100.892 53.89 100.621 53.61C100.36 53.33 99.9821 53.19 99.4874 53.19C99.1514 53.19 98.8434 53.2833 98.5634 53.47C98.2928 53.6567 98.0734 53.9133 97.9054 54.24C97.7468 54.5573 97.6674 54.9213 97.6674 55.332V59H96.2114V52.056ZM108.621 53.218H107.571V52.056H108.621V50.922C108.621 50.1567 108.822 49.564 109.223 49.144C109.634 48.7147 110.198 48.5 110.917 48.5C111.216 48.5 111.486 48.5467 111.729 48.64L111.477 49.914C111.29 49.8487 111.118 49.816 110.959 49.816C110.679 49.816 110.46 49.9047 110.301 50.082C110.142 50.2593 110.063 50.5207 110.063 50.866V52.056H111.631V53.218H110.063V59H108.621V53.218ZM115.881 59.196C115.227 59.196 114.616 59.056 114.047 58.776C113.477 58.4867 113.02 58.0667 112.675 57.516C112.329 56.956 112.157 56.2933 112.157 55.528C112.157 54.7627 112.329 54.1047 112.675 53.554C113.02 52.994 113.477 52.574 114.047 52.294C114.616 52.0047 115.227 51.86 115.881 51.86C116.525 51.86 117.131 52.0047 117.701 52.294C118.27 52.574 118.727 52.994 119.073 53.554C119.418 54.1047 119.591 54.7627 119.591 55.528C119.591 56.2933 119.418 56.956 119.073 57.516C118.727 58.0667 118.27 58.4867 117.701 58.776C117.131 59.056 116.525 59.196 115.881 59.196ZM115.881 57.866C116.282 57.866 116.655 57.7727 117.001 57.586C117.346 57.39 117.617 57.1147 117.813 56.76C118.018 56.4053 118.121 55.9947 118.121 55.528C118.121 55.0613 118.018 54.6507 117.813 54.296C117.617 53.9413 117.346 53.6707 117.001 53.484C116.655 53.288 116.282 53.19 115.881 53.19C115.47 53.19 115.092 53.288 114.747 53.484C114.411 53.6707 114.14 53.9413 113.935 54.296C113.729 54.6507 113.627 55.0613 113.627 55.528C113.627 55.9947 113.729 56.4053 113.935 56.76C114.14 57.1147 114.411 57.39 114.747 57.586C115.092 57.7727 115.47 57.866 115.881 57.866ZM121.053 52.056H122.509V53.232C122.696 52.812 122.957 52.4807 123.293 52.238C123.639 51.986 124.026 51.86 124.455 51.86C124.661 51.86 124.861 51.888 125.057 51.944L124.819 53.288C124.642 53.2227 124.455 53.19 124.259 53.19C123.746 53.19 123.326 53.4093 122.999 53.848C122.673 54.2773 122.509 54.8093 122.509 55.444V59H121.053V52.056ZM133.031 59.196C132.396 59.196 131.822 59.0467 131.309 58.748C130.796 58.44 130.39 58.0107 130.091 57.46C129.792 56.9 129.643 56.256 129.643 55.528C129.643 54.8093 129.797 54.1747 130.105 53.624C130.422 53.064 130.838 52.63 131.351 52.322C131.874 52.014 132.429 51.86 133.017 51.86C133.54 51.86 134.002 51.9673 134.403 52.182C134.804 52.3967 135.112 52.6907 135.327 53.064V49.2H136.783V59H135.327V57.894C135.122 58.2767 134.818 58.5893 134.417 58.832C134.016 59.0747 133.554 59.196 133.031 59.196ZM133.283 57.866C133.694 57.866 134.062 57.768 134.389 57.572C134.716 57.3667 134.972 57.0867 135.159 56.732C135.346 56.3773 135.439 55.976 135.439 55.528C135.439 55.08 135.346 54.6787 135.159 54.324C134.972 53.9693 134.716 53.694 134.389 53.498C134.062 53.2927 133.694 53.19 133.283 53.19C132.648 53.19 132.13 53.4093 131.729 53.848C131.328 54.2867 131.127 54.8467 131.127 55.528C131.127 56.2093 131.328 56.7693 131.729 57.208C132.13 57.6467 132.648 57.866 133.283 57.866ZM138.663 52.056H140.119V59H138.663V52.056ZM138.579 49.34H140.217V50.95H138.579V49.34ZM141.999 52.056H143.455V53.232C143.641 52.812 143.903 52.4807 144.239 52.238C144.584 51.986 144.971 51.86 145.401 51.86C145.606 51.86 145.807 51.888 146.003 51.944L145.765 53.288C145.587 53.2227 145.401 53.19 145.205 53.19C144.691 53.19 144.271 53.4093 143.945 53.848C143.618 54.2773 143.455 54.8093 143.455 55.444V59H141.999V52.056ZM149.905 59.196C149.27 59.196 148.682 59.042 148.141 58.734C147.609 58.426 147.184 57.992 146.867 57.432C146.55 56.872 146.391 56.2373 146.391 55.528C146.391 54.8187 146.55 54.1887 146.867 53.638C147.184 53.078 147.614 52.644 148.155 52.336C148.706 52.0187 149.312 51.86 149.975 51.86C150.638 51.86 151.221 52.0093 151.725 52.308C152.238 52.5973 152.635 53.008 152.915 53.54C153.195 54.0627 153.335 54.66 153.335 55.332V55.836H147.791C147.838 56.4613 148.057 56.97 148.449 57.362C148.841 57.754 149.336 57.95 149.933 57.95C150.446 57.95 150.871 57.8333 151.207 57.6C151.543 57.3573 151.828 57.0073 152.061 56.55L153.125 57.166C152.789 57.8473 152.36 58.356 151.837 58.692C151.314 59.028 150.67 59.196 149.905 59.196ZM151.949 54.702C151.893 54.17 151.678 53.7547 151.305 53.456C150.932 53.148 150.474 52.994 149.933 52.994C149.41 52.994 148.958 53.1573 148.575 53.484C148.192 53.8013 147.94 54.2073 147.819 54.702H151.949ZM158.001 59.196C157.32 59.196 156.704 59.042 156.153 58.734C155.602 58.426 155.168 57.9967 154.851 57.446C154.543 56.886 154.389 56.2467 154.389 55.528C154.389 54.8187 154.552 54.1887 154.879 53.638C155.206 53.078 155.644 52.644 156.195 52.336C156.755 52.0187 157.357 51.86 158.001 51.86C158.748 51.86 159.378 52.0093 159.891 52.308C160.414 52.6067 160.801 53.0407 161.053 53.61L159.863 54.338C159.462 53.582 158.841 53.204 158.001 53.204C157.6 53.204 157.236 53.302 156.909 53.498C156.592 53.6847 156.34 53.9553 156.153 54.31C155.966 54.6553 155.873 55.0613 155.873 55.528C155.873 56.228 156.069 56.7927 156.461 57.222C156.862 57.642 157.376 57.852 158.001 57.852C158.468 57.852 158.85 57.754 159.149 57.558C159.448 57.362 159.709 57.068 159.933 56.676L161.095 57.39C160.386 58.594 159.354 59.196 158.001 59.196ZM164.932 59.196C164.325 59.196 163.835 59.0327 163.462 58.706C163.089 58.37 162.902 57.8333 162.902 57.096V53.218H161.782V52.056H162.902V50.18H164.344V52.056H165.926V53.218H164.344V56.886C164.344 57.5767 164.652 57.922 165.268 57.922C165.455 57.922 165.641 57.894 165.828 57.838L165.968 59.028C165.651 59.14 165.305 59.196 164.932 59.196ZM167.346 52.056H168.802V59H167.346V52.056ZM167.262 49.34H168.9V50.95H167.262V49.34ZM173.959 59.196C173.305 59.196 172.694 59.056 172.125 58.776C171.555 58.4867 171.098 58.0667 170.753 57.516C170.407 56.956 170.235 56.2933 170.235 55.528C170.235 54.7627 170.407 54.1047 170.753 53.554C171.098 52.994 171.555 52.574 172.125 52.294C172.694 52.0047 173.305 51.86 173.959 51.86C174.603 51.86 175.209 52.0047 175.779 52.294C176.348 52.574 176.805 52.994 177.151 53.554C177.496 54.1047 177.669 54.7627 177.669 55.528C177.669 56.2933 177.496 56.956 177.151 57.516C176.805 58.0667 176.348 58.4867 175.779 58.776C175.209 59.056 174.603 59.196 173.959 59.196ZM173.959 57.866C174.36 57.866 174.733 57.7727 175.079 57.586C175.424 57.39 175.695 57.1147 175.891 56.76C176.096 56.4053 176.199 55.9947 176.199 55.528C176.199 55.0613 176.096 54.6507 175.891 54.296C175.695 53.9413 175.424 53.6707 175.079 53.484C174.733 53.288 174.36 53.19 173.959 53.19C173.548 53.19 173.17 53.288 172.825 53.484C172.489 53.6707 172.218 53.9413 172.013 54.296C171.807 54.6507 171.705 55.0613 171.705 55.528C171.705 55.9947 171.807 56.4053 172.013 56.76C172.218 57.1147 172.489 57.39 172.825 57.586C173.17 57.7727 173.548 57.866 173.959 57.866ZM179.131 52.056H180.587V53.232C180.839 52.8027 181.175 52.4667 181.595 52.224C182.015 51.9813 182.473 51.86 182.967 51.86C183.686 51.86 184.269 52.0747 184.717 52.504C185.175 52.924 185.403 53.512 185.403 54.268V59H183.947V54.786C183.947 54.282 183.812 53.89 183.541 53.61C183.28 53.33 182.902 53.19 182.407 53.19C182.071 53.19 181.763 53.2833 181.483 53.47C181.213 53.6567 180.993 53.9133 180.825 54.24C180.667 54.5573 180.587 54.9213 180.587 55.332V59H179.131V52.056ZM36.13 79.196C35.4487 79.196 34.8327 79.042 34.282 78.734C33.7313 78.426 33.2973 77.9967 32.98 77.446C32.672 76.886 32.518 76.2467 32.518 75.528C32.518 74.8187 32.6813 74.1887 33.008 73.638C33.3347 73.078 33.7733 72.644 34.324 72.336C34.884 72.0187 35.486 71.86 36.13 71.86C36.8767 71.86 37.5067 72.0093 38.02 72.308C38.5427 72.6067 38.93 73.0407 39.182 73.61L37.992 74.338C37.5907 73.582 36.97 73.204 36.13 73.204C35.7287 73.204 35.3647 73.302 35.038 73.498C34.7207 73.6847 34.4687 73.9553 34.282 74.31C34.0953 74.6553 34.002 75.0613 34.002 75.528C34.002 76.228 34.198 76.7927 34.59 77.222C34.9913 77.642 35.5047 77.852 36.13 77.852C36.5967 77.852 36.9793 77.754 37.278 77.558C37.5767 77.362 37.838 77.068 38.062 76.676L39.224 77.39C38.5147 78.594 37.4833 79.196 36.13 79.196ZM43.7889 79.196C43.1355 79.196 42.5242 79.056 41.9549 78.776C41.3855 78.4867 40.9282 78.0667 40.5829 77.516C40.2375 76.956 40.0649 76.2933 40.0649 75.528C40.0649 74.7627 40.2375 74.1047 40.5829 73.554C40.9282 72.994 41.3855 72.574 41.9549 72.294C42.5242 72.0047 43.1355 71.86 43.7889 71.86C44.4329 71.86 45.0395 72.0047 45.6089 72.294C46.1782 72.574 46.6355 72.994 46.9809 73.554C47.3262 74.1047 47.4989 74.7627 47.4989 75.528C47.4989 76.2933 47.3262 76.956 46.9809 77.516C46.6355 78.0667 46.1782 78.4867 45.6089 78.776C45.0395 79.056 44.4329 79.196 43.7889 79.196ZM43.7889 77.866C44.1902 77.866 44.5635 77.7727 44.9089 77.586C45.2542 77.39 45.5249 77.1147 45.7209 76.76C45.9262 76.4053 46.0289 75.9947 46.0289 75.528C46.0289 75.0613 45.9262 74.6507 45.7209 74.296C45.5249 73.9413 45.2542 73.6707 44.9089 73.484C44.5635 73.288 44.1902 73.19 43.7889 73.19C43.3782 73.19 43.0002 73.288 42.6549 73.484C42.3189 73.6707 42.0482 73.9413 41.8429 74.296C41.6375 74.6507 41.5349 75.0613 41.5349 75.528C41.5349 75.9947 41.6375 76.4053 41.8429 76.76C42.0482 77.1147 42.3189 77.39 42.6549 77.586C43.0002 77.7727 43.3782 77.866 43.7889 77.866ZM48.9614 72.056H50.4174V73.232C50.6694 72.8027 51.0054 72.4667 51.4254 72.224C51.8454 71.9813 52.3028 71.86 52.7974 71.86C53.5161 71.86 54.0994 72.0747 54.5474 72.504C55.0048 72.924 55.2334 73.512 55.2334 74.268V79H53.7774V74.786C53.7774 74.282 53.6421 73.89 53.3714 73.61C53.1101 73.33 52.7321 73.19 52.2374 73.19C51.9014 73.19 51.5934 73.2833 51.3134 73.47C51.0428 73.6567 50.8234 73.9133 50.6554 74.24C50.4968 74.5573 50.4174 74.9213 50.4174 75.332V79H48.9614V72.056ZM57.5019 73.218H56.4659V72.056H57.5019V70.922C57.5019 70.1567 57.7072 69.564 58.1179 69.144C58.5285 68.7147 59.0932 68.5 59.8119 68.5C60.1199 68.5 60.3859 68.5467 60.6099 68.64L60.3719 69.914C60.1852 69.8487 60.0125 69.816 59.8539 69.816C59.5739 69.816 59.3499 69.9047 59.1819 70.082C59.0232 70.2593 58.9439 70.5207 58.9439 70.866V72.056H63.1719V79H61.7159V73.218H58.9439V79H57.5019V73.218ZM61.6319 69.34H63.2559V70.95H61.6319V69.34ZM65.0396 72.056H66.4956V73.232C66.6822 72.812 66.9436 72.4807 67.2796 72.238C67.6249 71.986 68.0122 71.86 68.4416 71.86C68.6469 71.86 68.8476 71.888 69.0436 71.944L68.8056 73.288C68.6282 73.2227 68.4416 73.19 68.2456 73.19C67.7322 73.19 67.3122 73.4093 66.9856 73.848C66.6589 74.2773 66.4956 74.8093 66.4956 75.444V79H65.0396V72.056ZM70.1802 72.056H71.6362V73.064C71.8602 72.6813 72.1542 72.3873 72.5182 72.182C72.8822 71.9673 73.2695 71.86 73.6802 71.86C74.1562 71.86 74.5575 71.972 74.8842 72.196C75.2202 72.4107 75.4582 72.7187 75.5982 73.12C75.8315 72.728 76.1442 72.42 76.5362 72.196C76.9375 71.972 77.3622 71.86 77.8102 71.86C78.4915 71.86 79.0235 72.056 79.4062 72.448C79.7982 72.84 79.9942 73.372 79.9942 74.044V79H78.5522V74.478C78.5522 73.5727 78.1462 73.12 77.3342 73.12C76.8955 73.12 76.5315 73.302 76.2422 73.666C75.9529 74.0207 75.8082 74.534 75.8082 75.206V79H74.3662V74.52C74.3662 74.072 74.2635 73.7267 74.0582 73.484C73.8529 73.2413 73.5495 73.12 73.1482 73.12C72.7282 73.12 72.3689 73.302 72.0702 73.666C71.7809 74.03 71.6362 74.5293 71.6362 75.164V79H70.1802V72.056ZM83.7629 79.196C83.0723 79.196 82.5123 79 82.0829 78.608C81.6536 78.2067 81.4389 77.684 81.4389 77.04C81.4389 76.3867 81.6629 75.8733 82.1109 75.5C82.5683 75.1267 83.1516 74.884 83.8609 74.772L86.0729 74.422V74.142C86.0729 73.7407 85.9469 73.4373 85.6949 73.232C85.4523 73.0267 85.0976 72.924 84.6309 72.924C84.1736 72.924 83.8143 73.0173 83.5529 73.204C83.3009 73.3813 83.1749 73.6053 83.1749 73.876C83.1749 73.9413 83.1843 74.002 83.2029 74.058L81.9289 74.492C81.8543 74.3147 81.8169 74.1233 81.8169 73.918C81.8169 73.554 81.9289 73.218 82.1529 72.91C82.3863 72.5927 82.7176 72.3407 83.1469 72.154C83.5763 71.958 84.0709 71.86 84.6309 71.86C85.5643 71.86 86.2783 72.0653 86.7729 72.476C87.2769 72.8867 87.5289 73.484 87.5289 74.268V77.278C87.5289 77.67 87.5616 77.992 87.6269 78.244C87.6923 78.4867 87.8089 78.7387 87.9769 79H86.5069C86.2549 78.6733 86.1289 78.2627 86.1289 77.768C85.9143 78.216 85.5923 78.566 85.1629 78.818C84.7429 79.07 84.2763 79.196 83.7629 79.196ZM84.0709 77.992C84.6683 77.992 85.1489 77.7773 85.5129 77.348C85.8863 76.9093 86.0729 76.3493 86.0729 75.668V75.472L84.1829 75.794C83.7536 75.8687 83.4223 76.004 83.1889 76.2C82.9649 76.396 82.8529 76.6527 82.8529 76.97C82.8529 77.2873 82.9603 77.5393 83.1749 77.726C83.3989 77.9033 83.6976 77.992 84.0709 77.992ZM91.7464 79.196C91.1398 79.196 90.6498 79.0327 90.2764 78.706C89.9031 78.37 89.7164 77.8333 89.7164 77.096V73.218H88.5964V72.056H89.7164V70.18H91.1584V72.056H92.7404V73.218H91.1584V76.886C91.1584 77.5767 91.4664 77.922 92.0824 77.922C92.2691 77.922 92.4558 77.894 92.6424 77.838L92.7824 79.028C92.4651 79.14 92.1198 79.196 91.7464 79.196ZM94.1607 72.056H95.6167V79H94.1607V72.056ZM94.0767 69.34H95.7147V70.95H94.0767V69.34ZM100.773 79.196C100.12 79.196 99.5086 79.056 98.9393 78.776C98.3699 78.4867 97.9126 78.0667 97.5673 77.516C97.2219 76.956 97.0493 76.2933 97.0493 75.528C97.0493 74.7627 97.2219 74.1047 97.5673 73.554C97.9126 72.994 98.3699 72.574 98.9393 72.294C99.5086 72.0047 100.12 71.86 100.773 71.86C101.417 71.86 102.024 72.0047 102.593 72.294C103.163 72.574 103.62 72.994 103.965 73.554C104.311 74.1047 104.483 74.7627 104.483 75.528C104.483 76.2933 104.311 76.956 103.965 77.516C103.62 78.0667 103.163 78.4867 102.593 78.776C102.024 79.056 101.417 79.196 100.773 79.196ZM100.773 77.866C101.175 77.866 101.548 77.7727 101.893 77.586C102.239 77.39 102.509 77.1147 102.705 76.76C102.911 76.4053 103.013 75.9947 103.013 75.528C103.013 75.0613 102.911 74.6507 102.705 74.296C102.509 73.9413 102.239 73.6707 101.893 73.484C101.548 73.288 101.175 73.19 100.773 73.19C100.363 73.19 99.9846 73.288 99.6393 73.484C99.3033 73.6707 99.0326 73.9413 98.8273 74.296C98.6219 74.6507 98.5193 75.0613 98.5193 75.528C98.5193 75.9947 98.6219 76.4053 98.8273 76.76C99.0326 77.1147 99.3033 77.39 99.6393 77.586C99.9846 77.7727 100.363 77.866 100.773 77.866ZM105.946 72.056H107.402V73.232C107.654 72.8027 107.99 72.4667 108.41 72.224C108.83 71.9813 109.287 71.86 109.782 71.86C110.5 71.86 111.084 72.0747 111.532 72.504C111.989 72.924 112.218 73.512 112.218 74.268V79H110.762V74.786C110.762 74.282 110.626 73.89 110.356 73.61C110.094 73.33 109.716 73.19 109.222 73.19C108.886 73.19 108.578 73.2833 108.298 73.47C108.027 73.6567 107.808 73.9133 107.64 74.24C107.481 74.5573 107.402 74.9213 107.402 75.332V79H105.946V72.056Z" style="fill: rgb(224, 180, 58);"/>
      <rect opacity="0.24" x="160" y="-66" width="100" height="280" transform="rotate(-16 160 -66)" fill="url(#paint0_linear_1668_106024)"/>
      <rect opacity="0.24" x="328" y="34" width="100" height="280" transform="rotate(72 328 34)" fill="url(#paint1_linear_1668_106024)"/>
    </g>
  </g>
  <defs>
    <filter id="filter0_d_1668_106024" x="0" y="0" width="268" height="116" filterUnits="userSpaceOnUse" color-interpolation-filters="sRGB">
      <feFlood flood-opacity="0" result="BackgroundImageFix"/>
      <feColorMatrix in="SourceAlpha" type="matrix" values="0 0 0 0 0 0 0 0 0 0 0 0 0 0 0 0 0 0 127 0" result="hardAlpha"/>
      <feOffset dy="4"/>
      <feGaussianBlur stdDeviation="8"/>
      <feComposite in2="hardAlpha" operator="out"/>
      <feColorMatrix type="matrix" values="0 0 0 0 0.219608 0 0 0 0 0.25098 0 0 0 0 0.356863 0 0 0 0.24 0"/>
      <feBlend mode="normal" in2="BackgroundImageFix" result="effect1_dropShadow_1668_106024"/>
      <feBlend mode="normal" in="SourceGraphic" in2="effect1_dropShadow_1668_106024" result="shape"/>
    </filter>
    <linearGradient id="paint0_linear_1668_106024" x1="160" y1="27.5926" x2="260" y2="27.5926" gradientUnits="userSpaceOnUse">
      <stop stop-color="#DAD9F7"/>
      <stop offset="1" stop-color="#DAD9F7" stop-opacity="0"/>
    </linearGradient>
    <linearGradient id="paint1_linear_1668_106024" x1="328" y1="127.593" x2="428" y2="127.593" gradientUnits="userSpaceOnUse">
      <stop stop-color="#DAD9F7"/>
      <stop offset="1" stop-color="#DAD9F7" stop-opacity="0"/>
    </linearGradient>
    <clipPath id="clip0_1668_106024">
      <rect x="16" y="12" width="236" height="84" rx="8" fill="white"/>
    </clipPath>
  </defs>
</svg>