<svg width="44" height="24" viewBox="0 0 44 24" fill="none" xmlns="http://www.w3.org/2000/svg">
    <path d="M31.5137 3C29.447 3 27.1925 4.09274 24.8128 6.247C23.6855 7.2617 22.6992 8.35444 21.979 9.22863C21.979 9.22863 23.1376 10.5243 24.4057 11.9137C25.0946 11.0707 26.0809 9.93109 27.2238 8.90081C29.3374 6.9807 30.715 6.59044 31.5137 6.59044C34.4882 6.59044 36.8993 9.01006 36.8993 12.0073C36.8993 14.9734 34.4882 17.3929 31.5137 17.4242C31.3725 17.4242 31.2003 17.4086 30.9969 17.3618C31.8578 17.752 32.7973 18.033 33.6741 18.033C39.1223 18.033 40.1867 14.3801 40.2494 14.1147C40.4059 13.4435 40.5001 12.741 40.5001 12.0229C40.4844 7.04313 36.4609 3 31.5137 3Z"
          fill="url(#paint0_linear_12019_85601)"/>
    <path d="M12.4865 21C14.5532 21 16.8075 19.9073 19.1872 17.7531C20.3145 16.7383 21.3008 15.6456 22.021 14.7714C22.021 14.7714 20.8625 13.4757 19.5944 12.0864C18.9055 12.9294 17.9191 14.0689 16.7762 15.0992C14.6627 17.0037 13.2693 17.4096 12.4865 17.4096C9.51188 17.4096 7.10085 14.99 7.10085 11.9927C7.10085 9.02669 9.51188 6.60708 12.4865 6.57585C12.6274 6.57585 12.7996 6.59145 13.0032 6.63828C12.1421 6.24803 11.2027 5.96704 10.326 5.96704C4.87772 5.96704 3.8131 9.61992 3.75049 9.88532C3.59394 10.5566 3.5 11.259 3.5 11.9771C3.5 16.9569 7.52358 21 12.4865 21Z"
          fill="url(#paint1_linear_12019_85601)"/>
    <path fill-rule="evenodd" clip-rule="evenodd"
          d="M16.6291 8.97887C16.0342 8.41686 13.1222 6.12211 10.3354 6.04406C5.36918 5.92292 3.90931 9.43016 3.78345 9.88249C4.73471 5.94961 8.28056 3.01557 12.4959 3C15.9324 3 19.4051 6.27328 21.971 9.22739C21.9752 9.22243 21.9792 9.21759 21.9832 9.21294C21.9832 9.21294 23.1416 10.5086 24.4098 11.8979C24.4098 11.8979 25.8501 13.5527 27.3844 15.0045C27.9794 15.5665 30.8756 17.83 33.6624 17.9081C38.7664 18.0486 40.1755 14.3489 40.2535 14.0678C39.3145 18.0174 35.7604 20.9677 31.5332 20.9833C28.0957 20.9833 24.6217 17.7078 22.045 14.753C22.0399 14.759 22.035 14.7649 22.0304 14.7705C22.0304 14.7705 20.8719 13.4747 19.6038 12.0854C19.6038 12.0854 18.1634 10.4306 16.6291 8.97887Z"
          fill="#29ABE2"/>
    <defs>
        <linearGradient id="paint0_linear_12019_85601" x1="26.8003" y1="6.36118" x2="37.0367" y2="16.9816"
                        gradientUnits="userSpaceOnUse">
            <stop offset="0.21" stop-color="#F15A24"/>
            <stop offset="0.6841" stop-color="#FBB03B"/>
        </linearGradient>
        <linearGradient id="paint1_linear_12019_85601" x1="17.1897" y1="17.6343" x2="6.95325" y2="7.01397"
                        gradientUnits="userSpaceOnUse">
            <stop offset="0.21" stop-color="#ED1E79"/>
            <stop offset="0.8929" stop-color="#522785"/>
        </linearGradient>
    </defs>
</svg>
