<svg width="25" height="25" viewBox="0 0 25 25" fill="none" xmlns="http://www.w3.org/2000/svg">
    <path fill-rule="evenodd" clip-rule="evenodd" d="M21.14 12.7044C21.14 12.0663 21.0827 11.4526 20.9764 10.8635H12.5V14.3449H17.3436C17.135 15.4699 16.5009 16.4231 15.5477 17.0613V19.3194H18.4564C20.1582 17.7526 21.14 15.4453 21.14 12.7044Z" fill="#4285F4"/>
    <path fill-rule="evenodd" clip-rule="evenodd" d="M12.5 21.5C14.93 21.5 16.9673 20.6941 18.4564 19.3195L15.5477 17.0613C14.7418 17.6013 13.7109 17.9204 12.5 17.9204C10.1559 17.9204 8.17182 16.3372 7.46409 14.21H4.45728V16.5418C5.93818 19.4831 8.98182 21.5 12.5 21.5Z" fill="#34A853"/>
    <path fill-rule="evenodd" clip-rule="evenodd" d="M7.46409 14.2101C7.28409 13.6701 7.18182 13.0933 7.18182 12.5001C7.18182 11.9069 7.28409 11.3301 7.46409 10.7901V8.45825H4.45727C3.84773 9.67325 3.5 11.0478 3.5 12.5001C3.5 13.9523 3.84773 15.3269 4.45727 16.5419L7.46409 14.2101Z" fill="#FBBC05"/>
    <path fill-rule="evenodd" clip-rule="evenodd" d="M12.5 7.07955C13.8214 7.07955 15.0077 7.53364 15.9405 8.42545L18.5218 5.84409C16.9632 4.39182 14.9259 3.5 12.5 3.5C8.98182 3.5 5.93818 5.51682 4.45728 8.45818L7.46409 10.79C8.17182 8.66273 10.1559 7.07955 12.5 7.07955Z" fill="#EA4335"/>
</svg>
