<svg width="114" height="28" viewBox="0 0 114 28" fill="none" xmlns="http://www.w3.org/2000/svg">
    <path fill-rule="evenodd" clip-rule="evenodd" d="M113.521 22.0154V19.1806H108.987V9.31676C108.987 7.8579 107.75 6.6643 106.239 6.6643H101V9.49911H105.603V19.164H101V22.0154H113.521ZM107.269 0C106.032 0 105.036 0.895204 105.036 2.12197C105.036 3.38188 106.032 4.29366 107.269 4.27709C108.54 4.27709 109.536 3.38188 109.536 2.12197C109.536 0.895204 108.54 0 107.269 0ZM0 9H3.50382V3.54765H13.7748V0.331543H4.25954C1.4771 0.331543 0 1.80697 0 4.44285V9ZM21.8989 6.48192C17.1069 6.48192 13.8779 9.66487 13.8779 14.3398C13.8779 19.0314 17.1069 22.1812 21.8989 22.1977C26.6565 22.1977 29.9198 19.0479 29.9198 14.3398C29.9198 9.66487 26.6565 6.48192 21.8989 6.48192ZM21.8989 9.25043C24.6298 9.25043 26.4676 11.3724 26.4676 14.3398C26.4676 17.3073 24.6298 19.4292 21.8989 19.4292C19.1336 19.4292 17.2958 17.3073 17.2958 14.3398C17.2958 11.3724 19.1336 9.25043 21.8989 9.25043ZM42.1489 9.68146C38.8855 9.68146 37.8034 11.9526 37.8034 14.3564V19.1474H42.3378V21.9988H31.0534V19.1474H34.437V9.4991H31.0534V6.66429H37.7347V9.26701C38.5076 7.9242 39.8817 6.66429 42.6813 6.66429H44.4504V9.69803H42.1489V9.68146ZM67.3626 22.0154V12.1516C67.3626 8.57073 65.3702 6.48192 62.1584 6.48192C60.166 6.48192 58.6374 7.34397 57.6756 8.75309C56.9027 7.34397 55.4084 6.48192 53.5706 6.48192C51.8531 6.48192 50.4962 7.11188 49.6202 8.2226V6.66428H46.6317V21.9988H49.895V12.6157C49.895 10.7259 50.8912 9.38305 52.6947 9.38305C54.687 9.38305 55.374 10.7756 55.374 12.45V22.0154H58.6374V12.5328C58.6374 10.7259 59.6851 9.38305 61.4885 9.38305C63.2576 9.38305 64.0992 10.6264 64.0992 12.45V22.0154H67.3626ZM3.50382 21.8993H0V14.3398C0 11.5216 1.4771 10.1291 4.3626 10.1291H12.3664V13.3452H3.50382V21.8993ZM71.8416 6.66431L76.4103 18.3351L80.9103 6.66431H84.5L77.1317 24.4026C76.1355 26.8893 75.4485 28 73.0954 28H69.1794V25.1486H73.2843L74.5553 22.0983C74.5553 22.0983 70.5 12.5 68 6.66431H71.8416ZM90.5038 21.8993H87V14.3398C87 11.5216 88.4771 10.129 91.3626 10.129H99.3664V13.3451H90.5038V21.8993ZM90.5038 9H87V4.44285C87 1.80697 88.4771 0.331543 91.2595 0.331543H100.775V3.54765H90.5038V9Z" fill="#161E2D"/>
</svg>
