<svg width="108" height="28" viewBox="0 0 108 28" fill="none" xmlns="http://www.w3.org/2000/svg">
    <path d="M3.50357 9.49911H-0.000244141V4.44287C-0.000244141 1.80699 1.47685 0.331557 4.2593 0.331557H13.7746V3.54766H3.50357V9.49911Z" fill="white"/>
    <path d="M13.8776 14.3398C13.8776 9.66489 17.1066 6.48194 21.8986 6.48194C26.6562 6.48194 29.9196 9.66489 29.9196 14.3398C29.9196 19.048 26.6562 22.1977 21.8986 22.1977C17.1066 22.1812 13.8776 19.0314 13.8776 14.3398ZM26.4673 14.3398C26.4673 11.3724 24.6295 9.25044 21.8986 9.25044C19.1333 9.25044 17.2956 11.3724 17.2956 14.3398C17.2956 17.3073 19.1333 19.4292 21.8986 19.4292C24.6295 19.4292 26.4673 17.3073 26.4673 14.3398Z" fill="white"/>
    <path d="M42.1486 9.68147C38.8853 9.68147 37.8032 11.9526 37.8032 14.3564V19.1474H42.3375V21.9988H31.0532V19.1474H34.4368V9.49911H31.0532V6.6643H37.7345V9.26702C38.5074 7.92422 39.8814 6.6643 42.6811 6.6643H44.4501V9.69805H42.1486V9.68147Z" fill="white"/>
    <path d="M67.3624 12.1516V22.0154H64.099V12.45C64.099 10.6264 63.2574 9.38306 61.4883 9.38306C59.6849 9.38306 58.6372 10.7259 58.6372 12.5329V22.0154H55.3738V12.45C55.3738 10.7756 54.6868 9.38306 52.6944 9.38306C50.891 9.38306 49.8948 10.7259 49.8948 12.6157V21.9988H46.6314V6.6643H49.62V8.22261C50.4959 7.1119 51.8528 6.48194 53.5704 6.48194C55.4081 6.48194 56.9024 7.34399 57.6753 8.7531C58.6372 7.34399 60.1658 6.48194 62.1581 6.48194C65.37 6.48194 67.3624 8.57075 67.3624 12.1516Z" fill="white"/>
    <path d="M82.202 19.164V22.0154H69.6811V19.164H74.2841V9.49911H69.6811V6.6643H74.9196C76.4311 6.6643 77.6677 7.8579 77.6677 9.31676V19.1806H82.202V19.164ZM73.7173 2.12197C73.7173 0.895204 74.7135 0 75.9501 0C77.2211 0 78.2173 0.895204 78.2173 2.12197C78.2173 3.38188 77.2211 4.27709 75.9501 4.27709C74.7135 4.29366 73.7173 3.38188 73.7173 2.12197Z" fill="white"/>
    <path d="M99.9101 18.3351L95.3413 6.6643H88.1963V3.13321H93.6581V0.331557H89.2784C86.2383 0.331557 84.8643 1.77383 84.8643 4.52575V6.64772H80.3814V9.49911H84.8814V21.9988H88.2307V9.49911H92.9368L98.0551 22.0983L96.7841 25.1486H92.6791V28H96.5952C98.9482 28 99.6353 26.8893 100.631 24.4026L108 6.6643H104.41L99.9101 18.3351Z" fill="white"/>
    <path d="M3.50357 21.8993H-0.000244141V14.3398C-0.000244141 11.5216 1.47686 10.1291 4.36235 10.1291H12.3662V13.3452H3.50357V21.8993Z" fill="white"/>
</svg>
