<svg width="115" height="28" viewBox="0 0 115 28" fill="none" xmlns="http://www.w3.org/2000/svg">
    <path fill-rule="evenodd" clip-rule="evenodd" d="M114.021 22.0154V19.1806H109.487V9.31676C109.487 7.8579 108.25 6.6643 106.739 6.6643H101.5V9.49911H106.103V19.164H101.5V22.0154H114.021ZM107.769 0C106.532 0 105.536 0.895204 105.536 2.12197C105.536 3.38188 106.532 4.29366 107.769 4.27709C109.04 4.27709 110.036 3.38188 110.036 2.12197C110.036 0.895204 109.04 0 107.769 0ZM0.5 9H4.00382V3.54765H14.2748V0.331543H4.75954C1.9771 0.331543 0.5 1.80697 0.5 4.44285V9ZM22.3989 6.48192C17.6069 6.48192 14.3779 9.66487 14.3779 14.3398C14.3779 19.0314 17.6069 22.1812 22.3989 22.1977C27.1565 22.1977 30.4198 19.0479 30.4198 14.3398C30.4198 9.66487 27.1565 6.48192 22.3989 6.48192ZM22.3989 9.25043C25.1298 9.25043 26.9676 11.3724 26.9676 14.3398C26.9676 17.3073 25.1298 19.4292 22.3989 19.4292C19.6336 19.4292 17.7958 17.3073 17.7958 14.3398C17.7958 11.3724 19.6336 9.25043 22.3989 9.25043ZM42.6489 9.68146C39.3855 9.68146 38.3034 11.9526 38.3034 14.3564V19.1474H42.8378V21.9988H31.5534V19.1474H34.937V9.4991H31.5534V6.66429H38.2347V9.26701C39.0076 7.9242 40.3817 6.66429 43.1813 6.66429H44.9504V9.69803H42.6489V9.68146ZM67.8626 22.0154V12.1516C67.8626 8.57073 65.8702 6.48192 62.6584 6.48192C60.666 6.48192 59.1374 7.34397 58.1756 8.75309C57.4027 7.34397 55.9084 6.48192 54.0706 6.48192C52.3531 6.48192 50.9962 7.11188 50.1202 8.2226V6.66428H47.1317V21.9988H50.395V12.6157C50.395 10.7259 51.3912 9.38305 53.1947 9.38305C55.187 9.38305 55.874 10.7756 55.874 12.45V22.0154H59.1374V12.5328C59.1374 10.7259 60.1851 9.38305 61.9885 9.38305C63.7576 9.38305 64.5992 10.6264 64.5992 12.45V22.0154H67.8626ZM4.00382 21.8993H0.5V14.3398C0.5 11.5216 1.9771 10.1291 4.8626 10.1291H12.8664V13.3452H4.00382V21.8993ZM72.3416 6.66431L76.9103 18.3351L81.4103 6.66431H85L77.6317 24.4026C76.6355 26.8893 75.9485 28 73.5954 28H69.6794V25.1486H73.7843L75.0553 22.0983C75.0553 22.0983 71 12.5 68.5 6.66431H72.3416ZM91.0038 21.8993H87.5V14.3398C87.5 11.5216 88.9771 10.129 91.8626 10.129H99.8664V13.3451H91.0038V21.8993ZM91.0038 9H87.5V4.44285C87.5 1.80697 88.9771 0.331543 91.7595 0.331543H101.275V3.54765H91.0038V9Z" fill="white"/>
</svg>
