<svg width="43" height="24" viewBox="0 0 43 24" fill="none" xmlns="http://www.w3.org/2000/svg">
    <path fill-rule="evenodd" clip-rule="evenodd"
          d="M22.2828 7.15665C22.2555 7.15665 22.2281 7.15665 22.2008 7.14782C21.9277 7.10367 21.7457 6.85643 21.7912 6.59153L22.128 4.60477C22.3283 3.43038 23.275 2.51206 24.4949 2.3178L26.5249 1.99992C26.798 1.95577 27.0529 2.1412 27.0984 2.4061C27.1439 2.671 26.9528 2.91824 26.6797 2.96239L24.6496 3.28027C23.8576 3.40389 23.2477 3.9955 23.1112 4.76371L22.7743 6.75047C22.7379 6.98888 22.5286 7.15665 22.2828 7.15665ZM26.0151 8.03083V16.4458H28.291V8.03083H26.0151ZM29.8112 8.03083V16.437H33.5891C34.4721 16.437 35.2641 16.2516 35.956 15.8895C36.6478 15.5275 37.1849 15.0242 37.5673 14.3796C37.9496 13.735 38.1408 13.011 38.1408 12.2074C38.1408 11.4039 37.9496 10.6798 37.5673 10.0441C37.194 9.40831 36.6478 8.92266 35.956 8.56063C35.255 8.20743 34.4721 8.03083 33.5891 8.03083H29.8112ZM32.0871 14.6092V9.8763H33.5891C34.281 9.8763 34.8272 10.0971 35.2186 10.5209C35.61 10.9447 35.8103 11.5099 35.8103 12.2163C35.8103 12.9315 35.61 13.5054 35.2186 13.9469C34.8272 14.3884 34.281 14.6092 33.5891 14.6092H32.0871ZM36.1927 21.5937C36.2291 21.8322 36.4385 21.9999 36.6842 21.9999C36.689 21.9999 36.6938 21.9997 36.6985 21.9993C36.7029 21.9989 36.7072 21.9984 36.7116 21.998C36.7298 21.996 36.748 21.994 36.7662 21.9999L38.7962 21.682C40.0161 21.4878 40.9628 20.5695 41.1631 19.3951L41.4999 17.4083C41.5454 17.1434 41.3634 16.8962 41.0903 16.852C40.8172 16.8079 40.5623 16.9845 40.5167 17.2494L40.1799 19.2361C40.0434 20.0043 39.4334 20.596 38.6415 20.7196L36.6114 21.0375C36.3383 21.0816 36.1472 21.3288 36.1927 21.5937ZM40.9992 7.15666C40.7625 7.15666 40.5441 6.98889 40.5076 6.75048L40.1708 4.76372C40.0434 3.99551 39.4243 3.4039 38.6324 3.28028L36.6023 2.9624C36.3292 2.91825 36.1471 2.67101 36.1836 2.4061C36.2291 2.1412 36.484 1.9646 36.7571 1.99992L38.7871 2.3178C39.9979 2.50324 40.9537 3.42156 41.154 4.60478L41.4908 6.59154C41.5363 6.85644 41.3542 7.10368 41.0811 7.14783C41.0538 7.15666 41.0265 7.15666 40.9992 7.15666ZM26.5158 21.9911C26.5432 21.9999 26.5705 21.9999 26.5978 21.9999C26.8436 21.9999 27.0529 21.8233 27.0894 21.5849C27.1258 21.32 26.9437 21.0728 26.6706 21.0286L24.6406 20.7107C23.8486 20.5871 23.2295 19.9955 23.1021 19.2273L22.7653 17.2405C22.7198 16.9756 22.4649 16.799 22.1918 16.8432C21.9187 16.8873 21.7366 17.1346 21.7821 17.3995L22.1189 19.3862C22.3192 20.5695 23.2751 21.4878 24.4858 21.6732L26.5158 21.9911Z"
          fill="url(#paint0_linear_12080_18741)"/>
    <path fill-rule="evenodd" clip-rule="evenodd"
          d="M1.764 16.5341H3.66659C3.81224 16.5341 3.93059 16.4193 3.93059 16.2692V11.4745L7.28971 16.4105C7.33523 16.4812 7.41716 16.5253 7.50819 16.5253H9.34706C9.49272 16.5253 9.61106 16.4105 9.61106 16.2692V7.6423C9.61106 7.50102 9.49272 7.38623 9.34706 7.38623H7.43537C7.28971 7.38623 7.17137 7.50102 7.17137 7.6423V12.437L3.82135 7.50102C3.77583 7.43038 3.6939 7.38623 3.60287 7.38623H1.764C1.61834 7.38623 1.5 7.50102 1.5 7.6423V16.2781C1.5 16.4193 1.61834 16.5341 1.764 16.5341ZM11.0949 7.6423V16.2781C11.0949 16.4193 11.2132 16.5341 11.368 16.5253H13.307C13.4527 16.5253 13.571 16.4105 13.571 16.2692V13.2405H17.5218C17.6675 13.2405 17.7858 13.1257 17.7858 12.9845V11.5893C17.7858 11.448 17.6675 11.3333 17.5218 11.3333H13.5619V9.42597H17.977C18.1227 9.42597 18.241 9.31118 18.241 9.1699V7.6423C18.241 7.50102 18.1227 7.38623 17.977 7.38623H11.3589C11.2132 7.38623 11.0949 7.50102 11.0949 7.6423Z"
          fill="black"/>
    <defs>
        <linearGradient id="paint0_linear_12080_18741" x1="22.8472" y1="3.14782" x2="40.1019" y2="20.9366"
                        gradientUnits="userSpaceOnUse">
            <stop stop-color="#E44BF9"/>
            <stop offset="0.316663" stop-color="#8C5CF3"/>
            <stop offset="0.497778" stop-color="#3581F5"/>
            <stop offset="0.71553" stop-color="#3ACBE1"/>
            <stop offset="1" stop-color="#3DEED7"/>
        </linearGradient>
    </defs>
</svg>
