<svg width="161" height="161" viewBox="0 0 161 161" fill="none" xmlns="http://www.w3.org/2000/svg">
    <path d="M9 0.5C4.30558 0.5 0.5 4.30558 0.5 9V152C0.5 156.694 4.30558 160.5 9 160.5H152C156.694 160.5 160.5 156.694 160.5 152V9C160.5 4.30558 156.694 0.5 152 0.5H9Z" fill="#667085"/>
    <path d="M9 0.5C4.30558 0.5 0.5 4.30558 0.5 9V152C0.5 156.694 4.30558 160.5 9 160.5H152C156.694 160.5 160.5 156.694 160.5 152V9C160.5 4.30558 156.694 0.5 152 0.5H9Z" stroke="#D7DCE5"/>
    <circle cx="80" cy="80.5" r="19.5" stroke="white"/>
    <path d="M87.875 82.5154C89.0417 81.8418 89.0417 80.1579 87.875 79.4843L77.375 73.4221C76.2083 72.7486 74.75 73.5905 74.75 74.9377V87.062C74.75 88.4092 76.2083 89.2511 77.375 88.5776V86.8455L76.625 87.2785C76.4583 87.3747 76.25 87.2544 76.25 87.062L76.25 74.9376C76.25 74.7452 76.4583 74.6249 76.625 74.7211L87.125 80.7833C87.2917 80.8795 87.2917 81.1201 87.125 81.2163L78.8516 85.993V87.7251L87.875 82.5154Z" fill="#F5F7FA"/>
</svg>
