<svg width="14" height="16" viewBox="0 0 14 16" fill="none" xmlns="http://www.w3.org/2000/svg">
<path fill-rule="evenodd" clip-rule="evenodd" d="M6 1.75C5.86193 1.75 5.75 1.86193 5.75 2V2.25H8.25V2C8.25 1.86193 8.13807 1.75 8 1.75H6ZM9.75 2.25V2C9.75 1.0335 8.9665 0.25 8 0.25H6C5.0335 0.25 4.25 1.0335 4.25 2V2.25H0V3.75H1.25V14C1.25 14.9665 2.0335 15.75 3 15.75H11C11.9665 15.75 12.75 14.9665 12.75 14V4.95331H11.25V14C11.25 14.1381 11.1381 14.25 11 14.25H3C2.86193 14.25 2.75 14.1381 2.75 14V3.75H14V2.25H9.75ZM5.75 5V12H4.25V5H5.75ZM8.25 12V5H9.75V12H8.25Z" fill="#38405B"/>
</svg>
