<svg width="24" height="24" viewBox="0 0 24 24" fill="none" xmlns="http://www.w3.org/2000/svg">
<path fill-rule="evenodd" clip-rule="evenodd" d="M9.35653 8.87429C8.97572 9.42917 8.75 10.11 8.75 10.8499C8.75 12.7506 10.2301 14.2454 12 14.2454C13.689 14.2454 15.1128 12.8857 15.2407 11.109L16.7368 11.2167C16.5561 13.7266 14.5261 15.7454 12 15.7454C9.35162 15.7454 7.25 13.5281 7.25 10.8499C7.25 9.80094 7.57094 8.82521 8.11977 8.02551L9.35653 8.87429Z" fill="#38405B"/>
<path fill-rule="evenodd" clip-rule="evenodd" d="M4.81026 12C6.42053 14.1124 9.03196 15.5 12 15.5C14.968 15.5 17.5795 14.1124 19.1897 12C17.5795 9.88764 14.968 8.5 12 8.5C9.03196 8.5 6.42053 9.88764 4.81026 12ZM21 12C19.2035 9.01099 15.8458 7 12 7C8.15423 7 4.79648 9.01099 3 12C4.79648 14.989 8.15423 17 12 17C15.8458 17 19.2035 14.989 21 12Z" fill="#38405B"/>
</svg>
