<svg width="24" height="24" viewBox="0 0 24 24" fill="none" xmlns="http://www.w3.org/2000/svg">
    <path fill-rule="evenodd" clip-rule="evenodd" d="M11 5.75C10.8619 5.75 10.75 5.86193 10.75 6V6.25H13.25V6C13.25 5.86193 13.1381 5.75 13 5.75H11ZM14.75 6.25V6C14.75 5.0335 13.9665 4.25 13 4.25H11C10.0335 4.25 9.25 5.0335 9.25 6V6.25H5V7.75H6.25V18C6.25 18.9665 7.0335 19.75 8 19.75H16C16.9665 19.75 17.75 18.9665 17.75 18V8.95331H16.25V18C16.25 18.1381 16.1381 18.25 16 18.25H8C7.86193 18.25 7.75 18.1381 7.75 18V7.75H19V6.25H14.75ZM10.75 9V16H9.25V9H10.75ZM13.25 16V9H14.75V16H13.25Z" fill="#667085"/>
</svg>
