<svg width="24" height="24" viewBox="0 0 24 24" fill="none" xmlns="http://www.w3.org/2000/svg">
    <path fill-rule="evenodd" clip-rule="evenodd" d="M6.25 9.25V8C6.25 4.82436 8.82436 2.25 12 2.25C15.1756 2.25 17.75 4.82436 17.75 8V9.25H17.9999C18.9664 9.25 19.7499 10.0335 19.7499 11V11.5H18.2499V11C18.2499 10.8619 18.138 10.75 17.9999 10.75H6.00007C5.862 10.75 5.75007 10.8619 5.75007 11L5.75 14.9999C5.74995 17.8994 8.10047 20.25 11 20.25H12.9999C15.8993 20.25 18.2498 17.8995 18.2499 15.0001L18.2499 13L19.7499 13L19.7499 15.0001C19.7498 18.728 16.7278 21.75 12.9999 21.75H11C7.27203 21.75 4.24994 18.7279 4.25 14.9999L4.25007 11C4.25008 10.0335 5.03358 9.25 6.00007 9.25H6.25ZM7.75 8C7.75 5.65279 9.65279 3.75 12 3.75C14.3472 3.75 16.25 5.65279 16.25 8V9.25H7.75V8Z" fill="#344054"/>
    <path fill-rule="evenodd" clip-rule="evenodd" d="M11.25 17V13H12.75V17H11.25Z" fill="#344054"/>
</svg>
