<svg xmlns="http://www.w3.org/2000/svg" width="80" height="40" viewBox="0 0 80 40" fill="none">
    <script xmlns=""/>
    <path d="M15.4129 11.3865C15.7623 11.3865 15.9369 11.3865 16.0704 11.4543C16.1877 11.5139 16.2832 11.609 16.343 11.726C16.411 11.8591 16.411 12.0332 16.411 12.3815V27.5878C16.411 27.9361 16.411 28.1103 16.343 28.2433C16.2832 28.3603 16.1877 28.4554 16.0704 28.5151C15.9369 28.5828 15.7623 28.5828 15.4129 28.5828H12.8637C12.6912 28.5828 12.605 28.5828 12.5251 28.5613C12.4544 28.5423 12.3875 28.511 12.3277 28.4688C12.2601 28.4212 12.2051 28.355 12.0951 28.2226L5.31036 20.0574C5.14723 19.8611 5.06566 19.763 4.99437 19.7527C4.93264 19.7437 4.8705 19.7661 4.82868 19.8122C4.78038 19.8655 4.78038 19.9929 4.78038 20.2479V27.5878C4.78038 27.9361 4.78038 28.1103 4.71239 28.2433C4.65258 28.3603 4.55716 28.4554 4.43979 28.5151C4.30636 28.5828 4.13168 28.5828 3.78233 28.5828H0.998054C0.648707 28.5828 0.474033 28.5828 0.3406 28.5151C0.223229 28.4554 0.127803 28.3603 0.068 28.2433C1.252e-05 28.1103 1.252e-05 27.9361 1.252e-05 27.5878V12.3815C1.252e-05 12.0332 1.252e-05 11.8591 0.068 11.726C0.127803 11.609 0.223229 11.5139 0.3406 11.4543C0.474033 11.3865 0.648706 11.3865 0.998054 11.3865H3.54728C3.71973 11.3865 3.80596 11.3865 3.88582 11.408C3.95658 11.427 4.02342 11.4583 4.08327 11.5005C4.15082 11.5481 4.20583 11.6143 4.31585 11.7467L11.1006 19.9119C11.2637 20.1082 11.3453 20.2064 11.4166 20.2167C11.4783 20.2256 11.5405 20.2033 11.5823 20.1571C11.6306 20.1038 11.6306 19.9764 11.6306 19.7214V12.3815C11.6306 12.0332 11.6306 11.8591 11.6986 11.726C11.7584 11.609 11.8538 11.5139 11.9712 11.4543C12.1046 11.3865 12.2793 11.3865 12.6286 11.3865H15.4129Z"
          fill="black"/>
    <path d="M24.7651 15.1451C24.6603 15.1451 24.6079 15.1451 24.5678 15.1654C24.5326 15.1833 24.504 15.2119 24.486 15.247C24.4656 15.2869 24.4656 15.3391 24.4656 15.4436V18.6298C24.4656 18.7343 24.4656 18.7865 24.486 18.8264C24.504 18.8615 24.5326 18.8901 24.5678 18.908C24.6079 18.9283 24.6603 18.9283 24.7651 18.9283H31.0817C31.431 18.9283 31.6057 18.9283 31.7391 18.9961C31.8565 19.0557 31.9519 19.1508 32.0117 19.2679C32.0797 19.4009 32.0797 19.575 32.0797 19.9233V21.6919C32.0797 22.0402 32.0797 22.2144 32.0117 22.3474C31.9519 22.4644 31.8565 22.5595 31.7391 22.6192C31.6057 22.6869 31.431 22.6869 31.0817 22.6869H24.7651C24.6603 22.6869 24.6079 22.6869 24.5678 22.7073C24.5326 22.7252 24.504 22.7537 24.486 22.7888C24.4656 22.8287 24.4656 22.881 24.4656 22.9854V27.5878C24.4656 27.9361 24.4656 28.1103 24.3977 28.2433C24.3379 28.3603 24.2424 28.4554 24.1251 28.5151C23.9916 28.5828 23.817 28.5828 23.4676 28.5828H20.5848C20.2354 28.5828 20.0607 28.5828 19.9273 28.5151C19.8099 28.4554 19.7145 28.3603 19.6547 28.2433C19.5867 28.1103 19.5867 27.9361 19.5867 27.5878V12.3815C19.5867 12.0332 19.5867 11.8591 19.6547 11.726C19.7145 11.609 19.8099 11.5139 19.9273 11.4543C20.0607 11.3865 20.2354 11.3865 20.5848 11.3865H32.1166C32.466 11.3865 32.6406 11.3865 32.7741 11.4543C32.8914 11.5139 32.9869 11.609 33.0467 11.726C33.1147 11.8591 33.1147 12.0332 33.1147 12.3815V14.1501C33.1147 14.4984 33.1147 14.6725 33.0467 14.8056C32.9869 14.9226 32.8914 15.0177 32.7741 15.0773C32.6406 15.1451 32.466 15.1451 32.1166 15.1451H24.7651Z"
          fill="black"/>
    <path fill-rule="evenodd" clip-rule="evenodd"
          d="M48.9489 2.98425C49.4627 2.92963 49.8349 2.47007 49.7801 1.95779C49.7253 1.4455 49.2643 1.0745 48.7505 1.12911L46.8396 1.33223C45.8606 1.43628 45.0754 1.51974 44.4377 1.63501C43.7807 1.75376 43.2177 1.91608 42.6948 2.20825C41.8457 2.68262 41.1419 3.37774 40.6584 4.21953C40.3606 4.73811 40.1929 5.29772 40.0682 5.95113C39.9472 6.5853 39.857 7.36659 39.7445 8.3405L39.7397 8.38245L39.552 10.2428C39.5003 10.7554 39.8752 11.2127 40.3894 11.2642C40.9035 11.3158 41.3623 10.942 41.414 10.4294L41.6002 8.58251C41.7173 7.56881 41.8002 6.85751 41.9066 6.29974C42.011 5.75233 42.1276 5.41602 42.2824 5.14656C42.5973 4.59814 43.056 4.14504 43.6096 3.83574C43.8818 3.68369 44.2207 3.57028 44.7715 3.47073C45.3339 3.36908 46.0509 3.29228 47.0733 3.1836L48.9489 2.98425ZM67.1522 1.9578C67.0974 2.47008 67.4695 2.92965 67.9834 2.98426L69.8589 3.18362C70.8814 3.2923 71.5984 3.3691 72.1608 3.47075C72.7116 3.5703 73.0505 3.68371 73.3227 3.83576C73.8762 4.14506 74.3349 4.59816 74.6499 5.14658C74.8047 5.41604 74.9212 5.75235 75.0257 6.29976C75.1321 6.85753 75.2149 7.56883 75.332 8.58253L75.5183 10.4295C75.57 10.942 76.0287 11.3158 76.5429 11.2643C77.0571 11.2127 77.432 10.7554 77.3803 10.2428L77.1926 8.38247L77.1878 8.34052C77.0753 7.36661 76.985 6.58532 76.8641 5.95114C76.7394 5.29774 76.5717 4.73813 76.2739 4.21955C75.7904 3.37776 75.0865 2.68263 74.2375 2.20827C73.7146 1.9161 73.1516 1.75378 72.4946 1.63503C71.8569 1.51976 71.0717 1.4363 70.0927 1.33225L68.1818 1.12913C67.6679 1.07451 67.207 1.44552 67.1522 1.9578ZM67.1522 38.0144C67.0974 37.5021 67.4695 37.0426 67.9834 36.9879L69.8589 36.7886C70.8814 36.6799 71.5984 36.6031 72.1608 36.5015C72.7116 36.4019 73.0505 36.2885 73.3227 36.1364C73.8762 35.8271 74.3349 35.374 74.6499 34.8256C74.8047 34.5562 74.9212 34.2199 75.0257 33.6725C75.1321 33.1147 75.2149 32.4034 75.332 31.3897L75.5183 29.5428C75.57 29.0302 76.0287 28.6564 76.5429 28.7079C77.0571 28.7595 77.432 29.2168 77.3803 29.7294L77.1926 31.5897L77.1878 31.6317C77.0753 32.6056 76.985 33.3869 76.8641 34.0211C76.7394 34.6745 76.5717 35.2341 76.2739 35.7527C75.7904 36.5945 75.0865 37.2896 74.2375 37.7639C73.7146 38.0561 73.1516 38.2184 72.4946 38.3372C71.8569 38.4524 71.0717 38.5359 70.0927 38.64L68.1818 38.8431C67.6679 38.8977 67.207 38.5267 67.1522 38.0144ZM49.7801 38.0144C49.8349 37.5021 49.4627 37.0426 48.9489 36.9879L47.0734 36.7886C46.0509 36.6799 45.3339 36.6031 44.7715 36.5015C44.2207 36.4019 43.8818 36.2885 43.6096 36.1364C43.056 35.8271 42.5973 35.374 42.2824 34.8256C42.1276 34.5562 42.011 34.2199 41.9066 33.6725C41.8002 33.1147 41.7173 32.4034 41.6002 31.3897L41.414 29.5428C41.3623 29.0302 40.9035 28.6564 40.3894 28.7079C39.8752 28.7595 39.5003 29.2168 39.552 29.7294L39.7397 31.5897L39.7445 31.6317C39.857 32.6056 39.9472 33.3869 40.0682 34.0211C40.1929 34.6745 40.3606 35.2341 40.6584 35.7527C41.1419 36.5945 41.8458 37.2896 42.6948 37.7639C43.2177 38.0561 43.7807 38.2184 44.4377 38.3372C45.0754 38.4524 45.8606 38.5359 46.8395 38.6399L46.8396 38.64H46.8396L48.7505 38.8431C49.2644 38.8977 49.7253 38.5267 49.7801 38.0144ZM49.2695 12.7922C48.8249 12.7922 48.4644 13.1527 48.4644 13.5973V26.6468C48.4644 27.0915 48.8249 27.4519 49.2695 27.4519H51.8186C52.2632 27.4519 52.6237 27.0915 52.6237 26.6468V13.5973C52.6237 13.1527 52.2632 12.7922 51.8186 12.7922H49.2695ZM56.1613 12.7922C55.7167 12.7922 55.3562 13.1527 55.3562 13.5973V26.6468C55.3562 27.0915 55.7167 27.4519 56.1613 27.4519H62.3093C63.9198 27.4519 65.3482 27.1517 66.5946 26.5514C67.8409 25.951 68.8072 25.0994 69.4934 23.9964C70.1796 22.8934 70.5227 21.602 70.5227 20.1221C70.5227 18.6421 70.1796 17.3507 69.4934 16.2477C68.8072 15.1447 67.8409 14.2931 66.5946 13.6927C65.3482 13.0924 63.9198 12.7922 62.3093 12.7922H56.1613ZM65.1661 23.0749C64.4099 23.787 63.4016 24.143 62.1412 24.143H59.757C59.6236 24.143 59.5155 24.0349 59.5155 23.9015V16.3426C59.5155 16.2093 59.6236 16.1011 59.757 16.1011H62.1412C63.4016 16.1011 64.4099 16.4571 65.1661 17.1692C65.9364 17.8812 66.3215 18.8655 66.3215 20.1221C66.3215 21.3786 65.9364 22.3629 65.1661 23.0749Z"
          fill="url(#paint0_linear_67934_75297)"/>
    <defs>
        <linearGradient id="paint0_linear_67934_75297" x1="48.6429" y1="13.6783" x2="61.5787" y2="32.5365"
                        gradientUnits="userSpaceOnUse">
            <stop stop-color="#CC5CDC"/>
            <stop offset="0.244792" stop-color="#7B66FF"/>
            <stop offset="0.520833" stop-color="#1F8AF0"/>
            <stop offset="0.760417" stop-color="#00D1FF"/>
            <stop offset="1" stop-color="#3DEDD7"/>
        </linearGradient>
    </defs>
    <script xmlns=""/>
</svg>