<svg width="24" height="24" viewBox="0 0 24 24" fill="none" xmlns="http://www.w3.org/2000/svg">
    <path fill-rule="evenodd" clip-rule="evenodd" d="M16.2047 10.5031C16.9327 11.423 17.3713 12.5918 17.3713 13.859C17.3713 15.1263 16.9233 16.3279 16.172 17.2572L16.1067 17.337L16.088 17.2337C16.074 17.1493 16.0553 17.0601 16.0367 16.9709C15.6633 15.3141 14.4407 13.8919 12.4247 12.7373C11.0667 11.9628 10.2873 11.0288 10.082 9.96803C9.95133 9.28276 10.0493 8.5928 10.236 8.00141C10.4273 7.41001 10.7073 6.91718 10.9453 6.62149L11.7293 5.6593C11.8647 5.49033 12.126 5.49033 12.2613 5.6593L16.2047 10.5031ZM17.4413 9.54091L12.196 3.09189C12.098 2.96986 11.9067 2.96986 11.8087 3.09189L6.55867 9.54091L6.54 9.56438C5.57867 10.7706 5 12.3008 5 13.967C5 17.8486 8.136 20.998 12 20.998C15.864 20.998 19 17.8486 19 13.967C19 12.3008 18.4213 10.7706 17.4553 9.56438L17.4413 9.54091ZM7.814 10.4843L8.28067 9.90701L8.29467 10.015C8.304 10.0995 8.318 10.1839 8.33667 10.2684C8.64 11.8689 9.72733 13.2066 11.538 14.2392C13.1153 15.1404 14.03 16.1777 14.296 17.3182C14.408 17.7923 14.4267 18.2616 14.38 18.67L14.3753 18.6935L14.352 18.7028C13.6427 19.0502 12.84 19.2473 11.9953 19.2473C9.032 19.2473 6.62867 16.8348 6.62867 13.859C6.62867 12.5824 7.072 11.4043 7.814 10.4843Z" fill="#4DA2FF"/>
</svg>
