<svg xmlns="http://www.w3.org/2000/svg" width="98" height="107" viewBox="0 0 98 107" fill="none" class="marquee-dot-logo"><path d="M6.80003 84.2966C10.6738 98.7536 25.1428 111.841 55.0784 103.82C83.642 96.1661 101.543 72.6687 96.9015 55.3453C95.2985 49.3631 90.4703 45.3137 83.0266 45.9725L16.4659 51.5183C12.2741 51.84 10.3521 51.1528 9.2432 48.5113C8.16773 45.9943 8.78056 43.2922 13.8435 40.7334L64.4972 14.7381C68.3796 12.7628 70.9656 11.9363 73.3286 12.7725C74.8097 13.3107 75.785 15.4537 74.8893 18.0981L71.6051 27.7941C67.5745 39.6939 76.2027 42.4579 81.0672 41.1544C88.4264 39.1825 90.1578 32.1733 87.7868 23.3247C81.7759 0.891492 57.9756 -2.61592 36.397 3.16604C14.4442 9.04827 -4.5856 26.8371 1.22499 48.5225C2.59416 53.6323 7.29768 57.7151 12.7456 57.5911L21.0628 57.5707C22.7732 57.5312 22.1573 57.6718 25.4571 57.3984C28.7569 57.1251 37.5696 56.0407 37.5696 56.0407L80.8129 51.1469L81.9271 50.985C84.4563 50.5539 86.3675 51.2108 87.9836 53.9946C90.4018 58.1602 86.7123 61.3016 82.2956 65.062C82.1774 65.1626 82.0587 65.2637 81.9396 65.3652L43.9271 98.1251C37.4117 103.745 32.8348 101.632 31.2319 95.6494L25.5549 74.4625C24.1524 69.2281 19.0412 65.121 13.0541 66.7252C5.57021 68.7305 4.96334 77.442 6.80003 84.2966Z" fill="currentColor"></path></svg>