<svg width="88" height="88" viewBox="0 0 88 88" fill="none" xmlns="http://www.w3.org/2000/svg">
<path d="M44 31.8552C45.5188 31.8552 46.75 30.624 46.75 29.1051C46.75 27.5863 45.5188 26.355 44 26.355C42.4812 26.355 41.25 27.5863 41.25 29.1051C41.25 30.624 42.4812 31.8552 44 31.8552Z" fill="url(#paint0_radial_8779_114379)"/>
<path fill-rule="evenodd" clip-rule="evenodd" d="M36.6667 14.3005C38.2499 12.4604 41.0999 11.0004 43.9999 11.0004C46.8999 11.0004 49.7501 12.4604 51.3333 14.3005C51.9212 14.9837 52.8951 16.8257 54.0388 18.9889C55.8085 22.3361 57.9849 26.4524 59.7667 28.2343C61.5484 30.0161 65.6644 32.1924 69.0115 33.9622C71.1747 35.106 73.0168 36.08 73.7 36.6679C75.54 38.2513 77 41.1018 77 44.0019C77 46.902 75.54 49.7518 73.7 51.3351C73.0168 51.9229 71.1751 52.8967 69.0121 54.0404C65.6649 55.8102 61.5485 57.9867 59.7667 59.7687C57.9849 61.5505 55.8086 65.6668 54.0388 69.014C52.8951 71.1772 51.9212 73.0192 51.3333 73.7025C49.7501 75.5425 46.8999 77.0026 43.9999 77.0026C41.0999 77.0026 38.2499 75.5425 36.6667 73.7025C36.0788 73.0193 35.105 71.1773 33.9613 69.0142C32.1916 65.6669 30.0152 61.5506 28.2333 59.7687C26.4515 57.9868 22.3354 55.8104 18.9883 54.0406C16.8252 52.8969 14.9832 51.9229 14.3 51.3351C12.46 49.7518 11 46.9016 11 44.0015C11 41.1014 12.46 38.2512 14.3 36.6679C14.9832 36.08 16.8251 35.1061 18.9882 33.9624C22.3354 32.1926 26.4515 30.0162 28.2333 28.2343C30.0152 26.4524 32.1915 22.336 33.9613 18.9888C35.105 16.8256 36.0788 14.9837 36.6667 14.3005ZM37.2612 28.5565C36.5144 30.9679 35.797 33.2841 34.54 34.5412C33.283 35.7982 30.9669 36.5156 28.5556 37.2624C24.4961 38.5198 20.1667 39.8607 20.1667 44.0015C20.1667 48.1422 24.4961 49.4831 28.5556 50.7405C30.9669 51.4874 33.283 52.2047 34.54 53.4618C35.797 54.7189 36.5144 57.035 37.2612 59.4464C38.5185 63.5061 39.8594 67.8356 43.9999 67.8356C48.1406 67.8356 49.4815 63.506 50.7388 59.4463C51.4856 57.035 52.203 54.7189 53.46 53.4618C54.7171 52.2047 57.0332 51.4873 59.4445 50.7405C63.504 49.4832 67.8333 48.1423 67.8333 44.0018C67.8333 39.8608 63.5038 38.5198 59.4442 37.2624C57.033 36.5156 54.717 35.7982 53.46 34.5412C52.203 33.2841 51.4856 30.968 50.7388 28.5566C49.4815 24.4969 48.1406 20.1673 43.9999 20.1673C39.8594 20.1673 38.5185 24.4969 37.2612 28.5565Z" fill="url(#paint1_radial_8779_114379)"/>
<defs>
<radialGradient id="paint0_radial_8779_114379" cx="0" cy="0" r="1" gradientUnits="userSpaceOnUse" gradientTransform="translate(69.6667 18.3339) rotate(134.999) scale(36.2988)">
<stop stop-color="#164883"/>
<stop offset="1" stop-color="#0C213C"/>
</radialGradient>
<radialGradient id="paint1_radial_8779_114379" cx="0" cy="0" r="1" gradientUnits="userSpaceOnUse" gradientTransform="translate(69.6667 18.3339) rotate(134.999) scale(36.2988)">
<stop stop-color="#164883"/>
<stop offset="1" stop-color="#0C213C"/>
</radialGradient>
</defs>
</svg>
