<svg width="88" height="88" viewBox="0 0 88 88" fill="none" xmlns="http://www.w3.org/2000/svg">
<path d="M72.0898 14.6667L47.7275 32.6881L52.27 22.0644L72.0898 14.6667Z" fill="#E17726"/>
<path d="M15.9116 14.6667L40.0514 32.8364L35.7315 22.0829L15.9116 14.6667ZM63.3198 56.4386L56.8306 66.3392L70.7175 70.1586L74.6852 56.661L63.3198 56.4386ZM13.3345 56.661L17.2836 70.1586L31.1334 66.3392L24.6813 56.4386L13.3345 56.661Z" fill="#E27625"/>
<path d="M30.3928 39.7148L26.5364 45.5366L40.2564 46.1669L39.8114 31.3901L30.3928 39.7334V39.7148ZM57.6103 39.7334L48.0434 31.2047L47.7282 46.1669L61.4482 45.5366L57.6103 39.7334ZM31.1344 66.3391L39.4591 62.3343L32.3025 56.7721L31.1344 66.3391ZM48.5625 62.3158L56.8316 66.3391L55.7192 56.7536L48.5625 62.3158Z" fill="#E27625"/>
<path d="M56.8327 66.3387L48.5636 62.334L49.2311 67.7107L49.1569 69.9912L56.8327 66.3387ZM31.1355 66.3387L38.8484 69.9912L38.7927 67.7107L39.4602 62.334L31.1355 66.3387Z" fill="#D5BFB2"/>
<path d="M38.9755 53.1944L32.1155 51.192L36.9731 48.9671L38.994 53.1944H38.9755ZM49.0059 53.1944L51.0454 48.9486L55.9216 51.1735L49.0059 53.2129V53.1944Z" fill="#233447"/>
<path d="M31.1352 66.3391L32.3404 56.4385L24.6831 56.661L31.1352 66.3391ZM55.6644 56.4385L56.8324 66.3391L63.3216 56.661L55.6644 56.4385ZM61.4676 45.5366L47.7476 46.167L49.0083 53.2124L51.0478 48.9481L55.9239 51.173L61.4676 45.5366ZM32.1179 51.1915L36.9755 48.9666L38.9964 53.1939L40.2757 46.1485L26.5557 45.5366L32.1179 51.1915Z" fill="#CC6228"/>
<path d="M26.5515 45.5366L32.2991 56.7537L32.1137 51.1915L26.5515 45.5366ZM55.9197 51.1915L55.6973 56.7537L61.4448 45.5366L55.9197 51.1915ZM40.2715 46.167L38.9737 53.2124L40.6053 61.5186L40.9761 50.5611L40.2715 46.167ZM47.7248 46.167L47.0574 50.5426L47.3911 61.5186L49.0041 53.1939L47.7248 46.1485V46.167Z" fill="#E27525"/>
<path d="M49.0049 53.1942L47.3919 61.5189L48.56 62.3347L55.6981 56.7725L55.9206 51.1918L49.0049 53.1942ZM32.1145 51.1918L32.2999 56.754L39.4565 62.3162L40.6061 61.5189L38.993 53.1942L32.0959 51.1918H32.1145Z" fill="#F5841F"/>
<path d="M49.1755 69.9918L49.2311 67.7113L48.6007 67.1922H39.4046L38.7927 67.7113L38.8484 69.9918L31.1355 66.3393L33.8424 68.5642L39.3119 72.3279H48.6749L54.1629 68.5456L56.8327 66.3393L49.1569 69.9918H49.1755Z" fill="#C0AC9D"/>
<path d="M48.5594 62.3162L47.3914 61.519H40.6055L39.456 62.3348L38.7886 67.7115L39.4004 67.1924H48.5965L49.2269 67.7115L48.5594 62.3348V62.3162Z" fill="#161616"/>
<path d="M73.1271 33.8562L75.1666 23.937L72.0889 14.6667L48.5424 32.0948L57.6087 39.715L70.4017 43.4416L73.2198 40.1599L71.9962 39.27L73.9429 37.4901L72.4597 36.3406L74.4064 34.8574L73.1086 33.8562H73.1271ZM12.8333 23.9184L14.9098 33.8562L13.5749 34.8388L15.5587 36.3221L14.0755 37.4901L16.0037 39.27L14.78 40.1599L17.5982 43.4416L30.3912 39.7335L39.4575 32.0763L15.911 14.6667L12.8333 23.9184Z" fill="#763E1A"/>
<path d="M70.4023 43.4417L57.6093 39.7336L61.4657 45.5368L55.7182 56.7538L63.3198 56.6611H74.6852L70.4023 43.4417ZM30.3918 39.7151L17.5988 43.4417L13.3345 56.6611H24.6998L32.3015 56.7538L26.5539 45.5368L30.4103 39.7151H30.3918ZM47.7272 46.1672L48.5615 32.0764L52.2696 22.0645H35.7315L39.4396 32.0764L40.2739 46.1672L40.5891 50.5798V61.5188H47.3935L47.4305 50.5798L47.7272 46.1672Z" fill="#F5841F"/>
</svg>
