<?xml version="1.0" encoding="UTF-8"?>
<!DOCTYPE svg PUBLIC "-//W3C//DTD SVG 1.1//EN" "http://www.w3.org/Graphics/SVG/1.1/DTD/svg11.dtd">
<svg xmlns="http://www.w3.org/2000/svg" version="1.1" width="1081px" height="1081px" style="shape-rendering:geometricPrecision; text-rendering:geometricPrecision; image-rendering:optimizeQuality; fill-rule:evenodd; clip-rule:evenodd" xmlns:xlink="http://www.w3.org/1999/xlink">
<g><path style="opacity:0.995" fill="#836ef9" d="M 529.5,-0.5 C 536.5,-0.5 543.5,-0.5 550.5,-0.5C 581.85,4.82241 611.516,15.3224 639.5,31C 695.53,63.1788 747.863,100.512 796.5,143C 876.696,212.503 947.53,290.003 1009,375.5C 1027.66,402.532 1044.33,430.866 1059,460.5C 1069.53,482.586 1076.7,505.586 1080.5,529.5C 1080.5,536.5 1080.5,543.5 1080.5,550.5C 1075.18,581.848 1064.68,611.514 1049,639.5C 1026.13,680.349 1000.13,719.016 971,755.5C 893.34,852.17 804.507,936.67 704.5,1009C 677.468,1027.66 649.134,1044.33 619.5,1059C 597.416,1069.53 574.416,1076.7 550.5,1080.5C 543.5,1080.5 536.5,1080.5 529.5,1080.5C 498.15,1075.18 468.484,1064.68 440.5,1049C 399.651,1026.13 360.984,1000.13 324.5,971C 227.83,893.34 143.33,804.507 71,704.5C 52.3402,677.468 35.6735,649.134 21,619.5C 10.4686,597.414 3.30191,574.414 -0.5,550.5C -0.5,543.5 -0.5,536.5 -0.5,529.5C 4.82093,498.152 15.3209,468.486 31,440.5C 63.1788,384.47 100.512,332.137 143,283.5C 212.503,203.304 290.003,132.47 375.5,71C 402.532,52.3402 430.866,35.6735 460.5,21C 482.586,10.4686 505.586,3.30191 529.5,-0.5 Z M 604.5,230.5 C 616.967,228.95 628.3,231.783 638.5,239C 658.018,255.186 675.518,273.352 691,293.5C 749.006,370.999 796.34,454.999 833,545.5C 840.575,564.558 845.908,584.224 849,604.5C 850.97,615.616 848.97,625.949 843,635.5C 831.579,651.589 818.079,665.756 802.5,678C 720.761,741.9 631.428,793.566 534.5,833C 515.442,840.575 495.776,845.908 475.5,849C 464.384,850.97 454.051,848.97 444.5,843C 428.411,831.579 414.244,818.079 402,802.5C 338.1,720.761 286.434,631.428 247,534.5C 239.425,515.442 234.092,495.776 231,475.5C 229.03,464.384 231.03,454.051 237,444.5C 247.118,431.382 258.285,419.215 270.5,408C 342.176,350.458 420.176,302.458 504.5,264C 536.651,248.894 569.985,237.728 604.5,230.5 Z"/></g>
</svg>
