<svg width="88" height="88" viewBox="0 0 1200 1201" fill="none" xmlns="http://www.w3.org/2000/svg">
    <g clip-path="url(#clip0_1_8)">
        <mask id="mask0_1_8" style="mask-type:luminance" maskUnits="userSpaceOnUse" x="0" y="0" width="1200" height="1201">
            <path d="M1200 0.5H0V1200.5H1200V0.5Z" fill="white"/>
        </mask>
        <g mask="url(#mask0_1_8)">
            <path d="M942.408 0.5H257.592C115.328 0.5 0 115.828 0 258.092V942.908C0 1085.17 115.328 1200.5 257.592 1200.5H942.408C1084.67 1200.5 1200 1085.17 1200 942.908V258.092C1200 115.828 1084.67 0.5 942.408 0.5Z" fill="#AB9FF2"/>
            <path fill-rule="evenodd" clip-rule="evenodd" d="M517.219 780.314C470.102 852.512 391.148 943.878 286.09 943.878C236.426 943.878 188.672 923.433 188.672 834.622C188.672 608.443 497.48 258.313 784.004 258.313C947.004 258.313 1011.95 371.402 1011.95 499.826C1011.95 664.668 904.98 853.151 798.648 853.151C764.902 853.151 748.347 834.622 748.347 805.232C748.347 797.565 749.621 789.259 752.168 780.314C715.875 842.289 645.836 899.792 580.254 899.792C532.5 899.792 508.305 869.763 508.305 827.594C508.305 812.26 511.488 796.287 517.219 780.314ZM904.363 495.369C904.363 532.791 882.284 551.502 857.586 551.502C832.514 551.502 810.809 532.791 810.809 495.369C810.809 457.948 832.514 439.237 857.586 439.237C882.284 439.237 904.363 457.948 904.363 495.369ZM764.031 495.371C764.031 532.793 741.952 551.504 717.254 551.504C692.182 551.504 670.477 532.793 670.477 495.371C670.477 457.949 692.182 439.239 717.254 439.239C741.952 439.239 764.031 457.949 764.031 495.371Z" fill="#FFFDF8"/>
        </g>
    </g>
    <defs>
        <clipPath id="clip0_1_8">
            <rect width="1200" height="1200" fill="white" transform="translate(0 0.5)"/>
        </clipPath>
    </defs>
</svg>
