<svg width="88" height="88" viewBox="0 0 88 88" fill="none" xmlns="http://www.w3.org/2000/svg">
<path d="M24.2 11.0004C16.9098 11.0004 11 16.9104 11 24.2008V63.8021C11 71.0925 16.9098 77.0026 24.2 77.0026H41.7865L20.9 24.2008L77 33.8262V24.2008C77 16.9104 71.0902 11.0004 63.8 11.0004H24.2Z" fill="#135DCD"/>
<path d="M77 38.7769L33.5343 31.3225L63.4572 55.6431L77 43.6384V38.7769Z" fill="#135DCD"/>
<path d="M77 50.1724L71.1933 55.3268L77 54.5279V50.1724Z" fill="#135DCD"/>
<path d="M77 59.4468L65.6985 61.0024L63.5606 77.0026H63.8C71.0902 77.0026 77 71.0925 77 63.8021V59.4468Z" fill="#135DCD"/>
<path d="M58.6307 77.0026L60.9268 59.8727L30.4616 35.1094L47.0061 77.0026H58.6307Z" fill="#135DCD"/>
</svg>
