<svg width="88" height="88" viewBox="0 0 88 88" fill="none" xmlns="http://www.w3.org/2000/svg">
<path d="M22.3461 29.8284C34.3052 18.1195 53.6946 18.1195 65.6538 29.8284L67.093 31.2375C67.6909 31.8231 67.6909 32.7722 67.093 33.3577L62.1696 38.1782C61.8705 38.471 61.3858 38.471 61.0867 38.1782L59.1062 36.2391C50.7632 28.0706 37.2366 28.0706 28.8936 36.2391L26.7725 38.3157C26.4736 38.6085 25.9889 38.6085 25.6899 38.3157L20.7664 33.4952C20.1683 32.9097 20.1683 31.9606 20.7664 31.375L22.3461 29.8284ZM75.8361 39.7979L80.2181 44.0881C80.8161 44.6736 80.8161 45.6227 80.2181 46.2082L60.4596 65.5539C59.8617 66.1392 58.8921 66.1392 58.2942 65.5539L44.2707 51.8238C44.1212 51.6773 43.8788 51.6773 43.7293 51.8238L29.7062 65.5539C29.1083 66.1392 28.1387 66.1392 27.5408 65.5539L7.78172 46.208C7.18376 45.6225 7.18376 44.6734 7.78172 44.0879L12.1637 39.7975C12.7616 39.2122 13.7311 39.2122 14.3291 39.7975L28.3528 53.5278C28.5021 53.6743 28.7445 53.6743 28.894 53.5278L42.9169 39.7975C43.5148 39.2122 44.4844 39.2122 45.0823 39.7975L59.106 53.5278C59.2555 53.6743 59.4979 53.6743 59.6474 53.5278L73.6707 39.7979C74.2688 39.2123 75.2382 39.2123 75.8361 39.7979Z" fill="#3396FF"/>
</svg>
